<?xml version="1.0" encoding="UTF-8" standalone="no"?>
<!-- Created with Inkscape (http://www.inkscape.org/) -->

<svg
   xmlns:dc="http://purl.org/dc/elements/1.1/"
   xmlns:cc="http://creativecommons.org/ns#"
   xmlns:rdf="http://www.w3.org/1999/02/22-rdf-syntax-ns#"
   xmlns:svg="http://www.w3.org/2000/svg"
   xmlns="http://www.w3.org/2000/svg"
   xmlns:sodipodi="http://sodipodi.sourceforge.net/DTD/sodipodi-0.dtd"
   xmlns:inkscape="http://www.inkscape.org/namespaces/inkscape"
   inkscape:version="0.91 r13725"
   version="1.1"
   id="svg2"
   viewBox="0 0 405.59634 467.90912"
   height="132.05435mm"
   width="114.4683mm"
   sodipodi:docname="Formation VDR-4.svg">
  <sodipodi:namedview
     inkscape:bbox-nodes="true"
     inkscape:bbox-paths="true"
     inkscape:snap-bbox="true"
     inkscape:window-maximized="1"
     inkscape:window-y="27"
     inkscape:window-x="0"
     inkscape:window-height="836"
     inkscape:window-width="1440"
     showgrid="false"
     inkscape:current-layer="layer1"
     inkscape:document-units="px"
     inkscape:cy="598.382"
     inkscape:cx="67.923581"
     inkscape:zoom="0.35"
     inkscape:pageshadow="2"
     inkscape:pageopacity="0.0"
     borderopacity="1.0"
     bordercolor="#666666"
     pagecolor="#ffffff"
     id="base"
     fit-margin-top="0"
     fit-margin-left="0"
     fit-margin-right="0"
     fit-margin-bottom="0" />
  <defs
     id="defs4" />
  <metadata
     id="metadata7">
    <rdf:RDF>
      <cc:Work
         rdf:about="">
        <dc:format>image/svg+xml</dc:format>
        <dc:type
           rdf:resource="http://purl.org/dc/dcmitype/StillImage" />
        <dc:title></dc:title>
      </cc:Work>
    </rdf:RDF>
  </metadata>
  <g
     inkscape:label="Calque 1"
     inkscape:groupmode="layer"
     id="layer1"
     transform="translate(-169.24907,-446.97903)">
    <path
       sodipodi:type="star"
       style="fill:#126ea6;fill-opacity:1;stroke:#4d4d4d;stroke-width:2.79999995;stroke-linecap:round;stroke-linejoin:round;stroke-miterlimit:4;stroke-dasharray:none"
       id="path4286"
       sodipodi:sides="6"
       sodipodi:cx="372.04724"
       sodipodi:cy="680.93359"
       sodipodi:r1="232.55458"
       sodipodi:r2="201.39816"
       sodipodi:arg1="0.52359878"
       sodipodi:arg2="1.0471976"
       inkscape:flatsided="true"
       inkscape:rounded="0"
       inkscape:randomized="0"
       d="M 573.44542,797.21088 372.04724,913.48817 170.64907,797.21088 l 0,-232.55458 201.39817,-116.27729 201.39818,116.27729 z" />
    <path
       style="fill:#000000;fill-opacity:0.284264;stroke:#4d4d4d;stroke-width:2.79999995;stroke-linecap:round;stroke-linejoin:round;stroke-miterlimit:4;stroke-dasharray:none;stroke-opacity:1"
       d=""
       title="sin(x)*sin(.5x)"
       id="path4310"
       inkscape:connector-curvature="0" />
    <path
       id="path4337"
       title="sin(x)+sin(.5x)"
       d=""
       style="fill:#000000;fill-opacity:0.284264;stroke:#4d4d4d;stroke-width:2.79999995;stroke-linecap:round;stroke-linejoin:round;stroke-miterlimit:4;stroke-dasharray:none;stroke-opacity:1"
       inkscape:connector-curvature="0" />
    <path
       id="path4651"
       title="sin(x)+0.7*sin(8*x)"
       d="m 202.41728,688.78069 339.25992,0 m -339.25992,23.6048 0,-47.20961 m 0,23.60481 c 0.28343,-2.60304 0.56685,-5.20496 0.85028,-7.63246 0.28342,-2.4275 0.56685,-4.67784 0.85027,-6.60617 0.28343,-1.92833 0.56685,-3.53148 0.85028,-4.71596 0.28342,-1.18449 0.56685,-1.94721 0.85027,-2.26081 0.28343,-0.3136 0.56685,-0.17554 0.85028,0.37115 0.28342,0.54669 0.56685,1.50358 0.85027,2.76416 0.28343,1.26059 0.56685,2.82521 0.85028,4.54086 0.28343,1.71565 0.56685,3.58141 0.85028,5.42209 0.28342,1.84068 0.56685,3.65425 0.85027,5.27121 0.28343,1.61697 0.56685,3.03451 0.85028,4.1158 0.28342,1.08128 0.56685,1.82314 0.85027,2.14318 0.28343,0.32003 0.56685,0.21524 0.85028,-0.3292 0.28342,-0.54445 0.56685,-1.53091 0.85027,-2.90424 0.28343,-1.37333 0.56685,-3.13485 0.85028,-5.16813 0.28342,-2.03328 0.56685,-4.33841 0.85027,-6.75607 0.28343,-2.41767 0.56685,-4.94671 0.85028,-7.41016 0.28342,-2.46345 0.56685,-4.85906 0.85027,-7.02027 0.28343,-2.1612 0.56686,-4.08501 0.85028,-5.64162 0.28343,-1.5566 0.56685,-2.74276 0.85028,-3.48597 0.28342,-0.74322 0.56685,-1.04048 0.85027,-0.88809 0.28343,0.15239 0.56685,0.75674 0.85028,1.74741 0.28342,0.99068 0.56685,2.36891 0.85027,4.01019 0.28343,1.64127 0.56685,3.54556 0.85028,5.54924 0.28342,2.00369 0.56685,4.1055 0.85027,6.12869 0.28343,2.0232 0.56685,3.96548 0.85028,5.66504 0.28342,1.69956 0.56685,3.15344 0.85027,4.24048 0.28343,1.08704 0.56685,1.8041 0.85028,2.08986 0.28342,0.28576 0.56685,0.13743 0.85027,-0.4367 0.28343,-0.57414 0.56686,-1.5761 0.85028,-2.9293 0.28343,-1.35319 0.56685,-3.05854 0.85028,-4.9833 0.28342,-1.92477 0.56685,-4.06859 0.85027,-6.26366 0.28343,-2.19507 0.56685,-4.43982 0.85028,-6.55797 0.28342,-2.11816 0.56685,-4.10717 0.85027,-5.8103 0.28343,-1.70313 0.56685,-3.11724 0.85028,-4.13 0.28342,-1.01276 0.56685,-1.62094 0.85027,-1.77445 0.28343,-0.15351 0.56685,0.15046 0.85028,0.89179 0.28342,0.74134 0.56685,1.922 0.85027,3.45482 0.28343,1.53282 0.56685,3.41861 0.85028,5.51696 0.28342,2.09836 0.56685,4.40881 0.85028,6.75996 0.28342,2.35115 0.56685,4.74134 0.85027,6.99533 0.28343,2.25399 0.56685,4.3692 0.85028,6.19432 0.28342,1.82511 0.56685,3.35706 0.85027,4.4924 0.28343,1.13535 0.56685,1.87101 0.85028,2.16782 0.28342,0.29682 0.56685,0.15218 0.85027,-0.40265 0.28343,-0.55483 0.56685,-1.52155 0.85028,-2.80347 0.28342,-1.28193 0.56685,-2.87958 0.85027,-4.64626 0.28343,-1.76668 0.56685,-3.70163 0.85028,-5.63147 0.28342,-1.92984 0.56685,-3.85264 0.85027,-5.59592 0.28343,-1.74327 0.56685,-3.30423 0.85028,-4.5387 0.28343,-1.23446 0.56685,-2.13922 0.85028,-2.62134 0.28342,-0.48212 0.56685,-0.53847 0.85027,-0.14219 0.28343,0.39629 0.56685,1.24777 0.85028,2.51092 0.28342,1.26315 0.56685,2.93956 0.85027,4.92214 0.28343,1.98259 0.56685,4.27171 0.85028,6.71365 0.28342,2.44194 0.56685,5.03579 0.85027,7.60551 0.28343,2.56971 0.56685,5.11326 0.85028,7.46012 0.28342,2.34686 0.56685,4.4942 0.85027,6.30403 0.28343,1.80982 0.56685,3.27894 0.85028,4.32369 0.28342,1.04476 0.56685,1.66211 0.85027,1.83593 0.28343,0.17382 0.56686,-0.0983 0.85028,-0.76243 0.28343,-0.66415 0.56685,-1.72171 0.85028,-3.05742 0.28342,-1.33571 0.56685,-2.9497 0.85027,-4.68368 0.28343,-1.73399 0.56685,-3.58683 0.85028,-5.38242 0.28342,-1.79559 0.56685,-3.53172 0.85027,-5.04246 0.28343,-1.51073 0.56685,-2.79314 0.85028,-3.71787 0.28342,-0.92474 0.56685,-1.48861 0.85027,-1.61947 0.28343,-0.13085 0.56685,0.17426 0.85028,0.91878 0.28342,0.74452 0.56685,1.93068 0.85027,3.4926 0.28343,1.56191 0.56685,3.50074 0.85028,5.69164 0.28342,2.19089 0.56685,4.63377 0.85028,7.16456 0.28342,2.53079 0.56685,5.14815 0.85027,7.67478 0.28343,2.52663 0.56685,4.96014 0.85028,7.13804 0.28342,2.17789 0.56685,4.09712 0.85027,5.63571 0.28343,1.53859 0.56685,2.69332 0.85028,3.40202 0.28342,0.7087 0.56685,0.96847 0.85027,0.78675 0.28343,-0.18171 0.56685,-0.80702 0.85028,-1.80011 0.28342,-0.99309 0.56685,-2.35497 0.85027,-3.95352 0.28343,-1.59855 0.56685,-3.43353 0.85028,-5.33754 0.28342,-1.90401 0.56685,-3.87558 0.85027,-5.73867 0.28343,-1.86309 0.56685,-3.61524 0.85028,-5.09971 0.28343,-1.48448 0.56685,-2.69824 0.85028,-3.5288 0.28342,-0.83055 0.56685,-1.27475 0.85027,-1.28222 0.28343,-0.007 0.56685,0.42451 0.85028,1.27619 0.28342,0.85167 0.56685,2.12491 0.85027,3.73291 0.28343,1.60799 0.56685,3.55145 0.85028,5.69026 0.28342,2.13882 0.56685,4.47242 0.85027,6.82959 0.28343,2.35718 0.56685,4.73617 0.85028,6.96179 0.28342,2.22562 0.56685,4.29519 0.85027,6.05735 0.28343,1.76215 0.56685,3.21371 0.85028,4.2511 0.28342,1.03739 0.56685,1.65741 0.85027,1.82076 0.28343,0.16334 0.56686,-0.13272 0.85028,-0.85703 0.28343,-0.72432 0.56685,-1.8787 0.85028,-3.36649 0.28342,-1.4878 0.56685,-3.30962 0.85027,-5.31863 0.28343,-2.00901 0.56685,-4.20456 0.85028,-6.41291 0.28342,-2.20836 0.56685,-4.42771 0.85027,-6.485 0.28343,-2.05729 0.56685,-3.94983 0.85028,-5.53268 0.28342,-1.58286 0.56685,-2.85292 0.85027,-3.71633 0.28343,-0.86341 0.56685,-1.31714 0.85028,-1.33331 0.28342,-0.0162 0.56685,0.4077 0.85027,1.22912 0.28343,0.82141 0.56685,2.04189 0.85028,3.55532 0.28342,1.51344 0.56685,3.32014 0.85028,5.26727 0.28342,1.94713 0.56685,4.03371 0.85027,6.08447 0.28343,2.05077 0.56685,4.0636 0.85028,5.86862 0.28342,1.80501 0.56685,3.39931 0.85027,4.64539 0.28343,1.24607 0.56685,2.14067 0.85028,2.60054 0.28342,0.45987 0.56685,0.48192 0.85027,0.0504 0.28343,-0.43153 0.56685,-1.31907 0.85028,-2.60834 0.28342,-1.28927 0.56685,-2.98169 0.85027,-4.96148 0.28343,-1.97978 0.56685,-4.2471 0.85028,-6.64301 0.28342,-2.3959 0.56685,-4.91931 0.85027,-7.39324 0.28343,-2.47394 0.56685,-4.89623 0.85028,-7.09991 0.28343,-2.20368 0.56685,-4.18585 0.85028,-5.81597 0.28342,-1.63013 0.56685,-2.90503 0.85027,-3.75127 0.28343,-0.84623 0.56685,-1.26086 0.85028,-1.2391 0.28342,0.0218 0.56685,0.48215 0.85027,1.31657 0.28343,0.83442 0.56685,2.04405 0.85028,3.50526 0.28342,1.46122 0.56685,3.17392 0.85027,4.97514 0.28343,1.80123 0.56685,3.68963 0.85028,5.48881 0.28342,1.79918 0.56685,3.50677 0.85027,4.96101 0.28343,1.45423 0.56685,2.65207 0.85028,3.47214 0.28342,0.82006 0.56685,1.25913 0.85027,1.25553 0.28343,-0.004 0.56686,-0.45276 0.85028,-1.33958 0.28343,-0.88682 0.56685,-2.2134 0.85028,-3.90346 0.28342,-1.69005 0.56685,-3.74456 0.85027,-6.03087 0.28343,-2.2863 0.56685,-4.80411 0.85028,-7.38536 0.28342,-2.58125 0.56685,-5.22444 0.85027,-7.75267 0.28343,-2.52824 0.56685,-4.93903 0.85028,-7.07467 0.28342,-2.13564 0.56685,-3.99304 0.85027,-5.45862 0.28343,-1.46558 0.56685,-2.53615 0.85028,-3.16018 0.28342,-0.62404 0.56685,-0.79875 0.85027,-0.54278 0.28343,0.25596 0.56685,0.94455 0.85028,1.97998 0.28342,1.03544 0.56685,2.41851 0.85028,4.01 0.28342,1.59149 0.56685,3.39092 0.85027,5.22776 0.28343,1.83685 0.56685,3.70944 0.85028,5.44309 0.28342,1.73366 0.56685,3.32578 0.85027,4.6253 0.28343,1.29951 0.56685,2.30332 0.85028,2.908 0.28342,0.60468 0.56685,0.80711 0.85027,0.568 0.28343,-0.23911 0.56685,-0.9224 0.85028,-2.01875 0.28342,-1.09634 0.56685,-2.60747 0.85027,-4.43671 0.28343,-1.82925 0.56685,-3.97715 0.85028,-6.29679 0.28342,-2.31965 0.56685,-4.81029 0.85027,-7.298 0.28343,-2.48772 0.56685,-4.97061 0.85028,-7.27529 0.28342,-2.30468 0.56685,-4.42837 0.85028,-6.22571 0.28342,-1.79734 0.56685,-3.2651 0.85027,-4.30894 0.28343,-1.04384 0.56685,-1.66061 0.85028,-1.82192 0.28342,-0.16131 0.56685,0.13543 0.85027,0.8482 0.28343,0.71276 0.56685,1.84318 0.85028,3.2855 0.28342,1.44232 0.56685,3.19695 0.85027,5.11124 0.28343,1.91429 0.56685,3.98738 0.85028,6.04394 0.28342,2.05656 0.56685,4.09461 0.85027,5.94401 0.28343,1.84939 0.56685,3.50734 0.85028,4.83588 0.28342,1.32854 0.56685,2.32454 0.85027,2.90412 0.28343,0.57958 0.56685,0.73977 0.85028,0.4641 0.28343,-0.27567 0.56685,-0.98954 0.85028,-2.08804 0.28342,-1.09851 0.56685,-2.58296 0.85027,-4.33828 0.28343,-1.75532 0.56685,-3.78158 0.85028,-5.92042 0.28342,-2.13884 0.56685,-4.38907 0.85027,-6.5742 0.28343,-2.18514 0.56685,-4.3029 0.85028,-6.18667 0.28342,-1.88377 0.56685,-3.53055 0.85027,-4.81003 0.28343,-1.27947 0.56685,-2.18839 0.85028,-2.65346 0.28342,-0.46506 0.56685,-0.48325 0.85027,-0.0499 0.28343,0.43332 0.56685,1.32045 0.85028,2.59661 0.28342,1.27615 0.56685,2.94258 0.85027,4.8753 0.28343,1.93273 0.56686,4.13175 0.85028,6.43357 0.28343,2.30181 0.56685,4.70517 0.85028,7.03294 0.28342,2.32777 0.56685,4.57766 0.85027,6.58698 0.28343,2.00933 0.56685,3.77513 0.85028,5.17493 0.28342,1.39979 0.56685,2.43044 0.85027,3.02905 0.28343,0.59861 0.56685,0.76236 0.85028,0.49789 0.28342,-0.26446 0.56685,-0.9592 0.85027,-2.00915 0.28343,-1.04995 0.56685,-2.45605 0.85028,-4.08678 0.28342,-1.63073 0.56685,-3.48577 0.85027,-5.39806 0.28343,-1.9123 0.56685,-3.8803 0.85028,-5.72799 0.28342,-1.84769 0.56685,-3.57254 0.85028,-5.01754 0.28342,-1.445 0.56685,-2.60704 0.85027,-3.37311 0.28343,-0.76607 0.56685,-1.13295 0.85028,-1.04962 0.28342,0.0833 0.56685,0.61968 0.85027,1.58992 0.28343,0.97024 0.56685,2.37633 0.85028,4.13196 0.28342,1.75562 0.56685,3.8616 0.85027,6.17804 0.28343,2.31644 0.56685,4.84288 0.85028,7.40799 0.28342,2.56512 0.56685,5.16725 0.85027,7.63073 0.28343,2.46349 0.56685,4.78573 0.85028,6.81453 0.28342,2.02879 0.56685,3.76104 0.85027,5.09206 0.28343,1.33103 0.56685,2.2577 0.85028,2.73941 0.28343,0.48171 0.56685,0.5158 0.85028,0.13211 0.28342,-0.3837 0.56685,-1.18694 0.85027,-2.31428 0.28343,-1.12735 0.56685,-2.57937 0.85028,-4.21024 0.28342,-1.63087 0.56685,-3.43987 0.85027,-5.254 0.28343,-1.81413 0.56685,-3.63151 0.85028,-5.27949 0.28342,-1.64798 0.56685,-3.12382 0.85027,-4.28266 0.28343,-1.15885 0.56685,-1.99755 0.85028,-2.42212 0.28342,-0.42457 0.56685,-0.43193 0.85027,0.006 0.28343,0.43797 0.56685,1.32379 0.85028,2.61517 0.28342,1.29138 0.56685,2.9899 0.85027,4.98948 0.28343,1.99959 0.56686,4.30061 0.85028,6.74999 0.28343,2.44938 0.56685,5.04621 0.85028,7.61463 0.28342,2.56842 0.56685,5.10637 0.85027,7.44305 0.28343,2.33668 0.56685,4.46921 0.85028,6.25887 0.28342,1.78966 0.56685,3.23321 0.85027,4.24595 0.28343,1.01273 0.56685,1.59158 0.85028,1.71921 0.28342,0.12763 0.56685,-0.19839 0.85027,-0.9253 0.28343,-0.7269 0.56685,-1.85611 0.85028,-3.27321 0.28342,-1.4171 0.56685,-3.12227 0.85027,-4.95764 0.28343,-1.83537 0.56685,-3.79987 0.85028,-5.71729 0.28342,-1.91741 0.56685,-3.78558 0.85028,-5.43794 0.28342,-1.65236 0.56685,-3.08604 0.85027,-4.17058 0.28343,-1.08455 0.56685,-1.81682 0.85028,-2.12325 0.28342,-0.30642 0.56685,-0.18409 0.85027,0.37199 0.28343,0.55608 0.56685,1.54812 0.85028,2.91168 0.28342,1.36357 0.56685,3.09981 0.85027,5.08509 0.28343,1.98528 0.56685,4.21948 0.85028,6.53934 0.28342,2.31986 0.56685,4.72401 0.85027,7.03545 0.28343,2.31143 0.56685,4.52775 0.85028,6.48624 0.28342,1.9585 0.56685,3.6561 0.85027,4.97023 0.28343,1.31413 0.56685,2.24152 0.85028,2.71914 0.28343,0.47761 0.56685,0.50252 0.85028,0.0812 0.28342,-0.42131 0.56685,-1.29101 0.85027,-2.53408 0.28343,-1.24307 0.56685,-2.86057 0.85028,-4.72089 0.28342,-1.86033 0.56685,-3.96327 0.85027,-6.14149 0.28343,-2.17822 0.56685,-4.43028 0.85028,-6.57969 0.28342,-2.1494 0.56685,-4.19371 0.85027,-5.97524 0.28343,-1.78152 0.56685,-3.29725 0.85028,-4.43329 0.28342,-1.13605 0.56685,-1.8893 0.85027,-2.20774 0.28343,-0.31844 0.56685,-0.19935 0.85028,0.33917 0.28342,0.53853 0.56685,1.49836 0.85027,2.79422 0.28343,1.29585 0.56686,2.92846 0.85028,4.75887 0.28343,1.83042 0.56685,3.8581 0.85028,5.91255 0.28342,2.05445 0.56685,4.13392 0.85027,6.06344 0.28343,1.92951 0.56685,3.7064 0.85028,5.17901 0.28342,1.47261 0.56685,2.63775 0.85027,3.3912 0.28343,0.75345 0.56685,1.09201 0.85028,0.97546 0.28342,-0.11656 0.56685,-0.69094 0.85027,-1.69293 0.28343,-1.00199 0.56685,-2.43339 0.85028,-4.1983 0.28342,-1.7649 0.56685,-3.86392 0.85027,-6.15062 0.28343,-2.28669 0.56685,-4.7604 0.85028,-7.24732 0.28342,-2.48692 0.56685,-4.98522 0.85028,-7.32127 0.28342,-2.33605 0.56685,-4.50715 0.85027,-6.3673 0.28343,-1.86015 0.56685,-3.40622 0.85028,-4.54297 0.28342,-1.13675 0.56685,-1.86111 0.85027,-2.14362 0.28343,-0.28251 0.56685,-0.12067 0.85028,0.44458 0.28342,0.56525 0.56685,1.53546 0.85027,2.80586 0.28343,1.27039 0.56685,2.84131 0.85028,4.56084 0.28342,1.71953 0.56685,3.58675 0.85027,5.42677 0.28343,1.84003 0.56685,3.65081 0.85028,5.26233 0.28342,1.61153 0.56685,3.02095 0.85027,4.09014 0.28343,1.0692 0.56685,1.79498 0.85028,2.09312 0.28343,0.29815 0.56685,0.16561 0.85028,-0.41449 0.28342,-0.5801 0.56685,-1.61017 0.85027,-3.037 0.28343,-1.42683 0.56685,-3.25181 0.85028,-5.36002 0.28342,-2.1082 0.56685,-4.49978 0.85027,-7.01623 0.28343,-2.51645 0.56685,-5.15667 0.85028,-7.74366 0.28342,-2.58698 0.56685,-5.11854 0.85027,-7.42719 0.28343,-2.30865 0.56685,-4.39145 0.85028,-6.11693 0.28342,-1.72547 0.56685,-3.09041 0.85027,-4.02012 0.28343,-0.92972 0.56685,-1.42123 0.85028,-1.46841 0.28342,-0.0472 0.56685,0.35222 0.85027,1.13488 0.28343,0.78267 0.56686,1.9498 0.85028,3.37872 0.28343,1.42891 0.56685,3.11958 0.85028,4.9095 0.28342,1.78991 0.56685,3.67781 0.85027,5.48723 0.28343,1.80943 0.56685,3.53807 0.85028,5.02358 0.28342,1.48552 0.56685,2.72494 0.85027,3.59584 0.28343,0.87091 0.56685,1.37014 0.85028,1.4347 0.28342,0.0646 0.56685,-0.3084 0.85027,-1.1124 0.28343,-0.80399 0.56685,-2.0411 0.85028,-3.63633 0.28342,-1.59524 0.56685,-3.54956 0.85027,-5.73133 0.28343,-2.18177 0.56685,-4.59069 0.85028,-7.05926 0.28342,-2.46858 0.56685,-4.99529 0.85027,-7.40336 0.28343,-2.40806 0.56686,-4.69495 0.85028,-6.70259 0.28343,-2.00763 0.56685,-3.73289 0.85028,-5.0614 0.28342,-1.32852 0.56685,-2.25707 0.85027,-2.73313 0.28343,-0.47605 0.56685,-0.49679 0.85028,-0.0798 0.28342,0.41699 0.56685,1.2737 0.85027,2.48521 0.28343,1.21152 0.56685,2.7787 0.85028,4.56283 0.28342,1.78413 0.56685,3.78479 0.85027,5.83152 0.28343,2.04673 0.56685,4.13789 0.85028,6.09834 0.28342,1.96044 0.56685,3.78761 0.85027,5.32945 0.28343,1.54184 0.56685,2.79528 0.85028,3.65554 0.28342,0.86026 0.56685,1.32424 0.85028,1.35104 0.28342,0.0268 0.56685,-0.38618 0.85027,-1.20946 0.28343,-0.82328 0.56685,-2.05857 0.85028,-3.61066 0.28342,-1.55208 0.56685,-3.42149 0.85027,-5.4624 0.28343,-2.04091 0.56685,-4.25257 0.85028,-6.4617 0.28342,-2.20912 0.56685,-4.4138 0.85027,-6.44075 0.28343,-2.02696 0.56685,-3.87341 0.85028,-5.39363 0.28342,-1.52022 0.56685,-2.71098 0.85027,-3.47721 0.28343,-0.76623 0.56685,-1.10478 0.85028,-0.98634 0.28342,0.11843 0.56685,0.69645 0.85027,1.69292 0.28343,0.99646 0.56685,2.41302 0.85028,4.14458 0.28343,1.73156 0.56685,3.77856 0.85028,5.98862 0.28342,2.21006 0.56685,4.58235 0.85027,6.94132 0.28343,2.35898 0.56685,4.70267 0.85028,6.86022 0.28342,2.15755 0.56685,4.12617 0.85027,5.76672 0.28343,1.64055 0.56685,2.9499 0.85028,3.84266 0.28342,0.89276 0.56685,1.36594 0.85027,1.40142 0.28343,0.0355 0.56685,-0.36908 0.85028,-1.16175 0.28342,-0.79266 0.56685,-1.97476 0.85027,-3.43255 0.28343,-1.45778 0.56685,-3.19138 0.85028,-5.04333 0.28342,-1.85195 0.56685,-3.82112 0.85027,-5.73142 0.28343,-1.91031 0.56686,-3.75952 0.85028,-5.38091 0.28343,-1.62139 0.56685,-3.01198 0.85028,-4.04092 0.28342,-1.02894 0.56685,-1.69299 0.85027,-1.91798 0.28343,-0.22498 0.56685,-0.008 0.85028,0.65687 0.28342,0.66478 0.56685,1.77955 0.85027,3.28046 0.28343,1.50091 0.56685,3.38919 0.85028,5.54154 0.28342,2.15235 0.56685,4.56875 0.85027,7.08597 0.28343,2.51721 0.56685,5.13396 0.85028,7.67289 0.28342,2.53893 0.56685,4.99773 0.85027,7.21298 0.28343,2.21525 0.56685,4.18396 0.85028,5.78253 0.28342,1.59856 0.56685,2.82379 0.85028,3.6114 0.28342,0.78762 0.56685,1.13474 0.85027,1.04655 0.28343,-0.0882 0.56685,-0.61379 0.85028,-1.50308 0.28342,-0.8893 0.56685,-2.14328 0.85027,-3.63143 0.28343,-1.48815 0.56685,-3.21022 0.85028,-4.99969 0.28342,-1.78946 0.56685,-3.64484 0.85027,-5.39013 0.28343,-1.74529 0.56685,-3.37801 0.85028,-4.74066 0.28342,-1.36265 0.56685,-2.45216 0.85027,-3.15459 0.28343,-0.70244 0.56685,-1.01462 0.85028,-0.88433 0.28342,0.13028 0.56685,0.70581 0.85027,1.70871 0.28343,1.00289 0.56685,2.43511 0.85028,4.21144 0.28343,1.77633 0.56685,3.89757 0.85028,6.22466 0.28342,2.32708 0.56685,4.85952 0.85027,7.42637 0.28343,2.56684 0.56685,5.16639 0.85028,7.62288 0.28342,2.45648 0.56685,4.76727 0.85027,6.77957 0.28343,2.0123 0.56685,3.72296 0.85028,5.02636 0.28342,1.3034 0.56685,2.19635 0.85027,2.63711 0.28343,0.44075 0.56685,0.42659 0.85028,-0.0138 0.28342,-0.4404 0.56685,-1.30885 0.85027,-2.51087 0.28343,-1.20203 0.56685,-2.73825 0.85028,-4.46341 0.28342,-1.72516 0.56685,-3.63862 0.85027,-5.56745 0.28343,-1.92882 0.56686,-3.8712 0.85028,-5.65402 0.28343,-1.78282 0.56685,-3.4034 0.85028,-4.71594 0.28342,-1.31254 0.56685,-2.31394 0.85027,-2.90888 0.28343,-0.59495 0.56685,-0.7804 0.85028,-0.52672 0.28342,0.25368 0.56685,0.949 0.85027,2.04517 0.28343,1.09617 0.56685,2.59475 0.85028,4.391 0.28342,1.79625 0.56685,3.8905 0.85027,6.13064 0.28343,2.24013 0.56685,4.62522 0.85028,6.97988 0.28342,2.35466 0.56685,4.67681 0.85027,6.79561 0.28343,2.1188 0.56685,4.03137 0.85028,5.59848 0.28342,1.56711 0.56685,2.78552 0.85028,3.56969 0.28342,0.78417 0.56685,1.13101 0.85027,1.02224 0.28343,-0.10877 0.56685,-0.67563 0.85028,-1.6487 0.28342,-0.97306 0.56685,-2.35381 0.85027,-4.02844 0.28343,-1.67462 0.56685,-3.64337 0.85028,-5.74859 0.28342,-2.10522 0.56685,-4.34588 0.85027,-6.54548 0.28343,-2.19959 0.56685,-4.35601 0.85028,-6.30189 0.28342,-1.94588 0.56685,-3.67836 0.85027,-5.06576 0.28343,-1.3874 0.56685,-2.42658 0.85028,-3.04243 0.28342,-0.61585 0.56685,-0.80544 0.85027,-0.56213 0.28343,0.24331 0.56685,0.92175 0.85028,1.97248 0.28343,1.05073 0.56685,2.47491 0.85028,4.15022 0.28342,1.67531 0.56685,3.60165 0.85027,5.61664 0.28343,2.01499 0.56685,4.11729 0.85028,6.13026 0.28342,2.01297 0.56685,3.93423 0.85027,5.60095 0.28343,1.66672 0.56685,3.07585 0.85028,4.10423 0.28342,1.02838 0.56685,1.67277 0.85027,1.86927 0.28343,0.19651 0.56685,-0.0578 0.85028,-0.75736 0.28342,-0.69956 0.56685,-1.84653 0.85027,-3.36675 0.28343,-1.52021 0.56685,-3.41472 0.85028,-5.55245 0.28342,-2.13772 0.56685,-4.51846 0.85027,-6.97496 0.28343,-2.45649 0.56686,-4.98732 0.85028,-7.41555 0.28343,-2.42823 0.56685,-4.75144 0.85028,-6.81102 0.28342,-2.05958 0.56685,-3.85251 0.85027,-5.2636 0.28343,-1.41109 0.56685,-2.4372 0.85028,-3.0248 0.28342,-0.58759 0.56685,-0.73391 0.85027,-0.45546 0.28343,0.27844 0.56685,0.98357 0.85028,2.03149 0.28342,1.04792 0.56685,2.43943 0.85027,4.03663 0.28343,1.59721 0.56685,3.39963 0.85028,5.23734 0.28342,1.83772 0.56685,3.70905 0.85027,5.43907 0.28343,1.73002 0.56685,3.31611 0.85028,4.60616 0.28342,1.29006 0.56685,2.28094 0.85028,2.86758 0.28342,0.58664 0.56685,0.76586 0.85027,0.49638 0.28343,-0.26948 0.56685,-0.99035 0.85028,-2.13352 0.28342,-1.14316 0.56685,-2.71039 0.85027,-4.60673 0.28343,-1.89633 0.56685,-4.12238 0.85028,-6.53228 0.28342,-2.40989 0.56685,-5.00298 0.85027,-7.60558 0.28343,-2.60261 0.56685,-5.2129 0.85028,-7.65687 0.28342,-2.44397 0.56685,-4.7189 0.85027,-6.67799 0.28343,-1.95909 0.56685,-3.59916 0.85028,-4.82383 0.28342,-1.22467 0.56685,-2.03082 0.85027,-2.38768 0.28343,-0.35685 0.56685,-0.26185 0.85028,0.24535 0.28342,0.50719 0.56685,1.42819 0.85028,2.65927 0.28342,1.23107 0.56685,2.77264 0.85027,4.47341 0.28343,1.70077 0.56685,3.55989 0.85028,5.40263 0.28342,1.84273 0.56685,3.6671 0.85027,5.30267 0.28343,1.63558 0.56685,3.07957 0.85028,4.193 0.28342,1.11343 0.56685,1.89313 0.85027,2.25367 0.28343,0.36054 0.56685,0.2989 0.85028,-0.20318 0.28342,-0.50209 0.56685,-1.44702 0.85027,-2.78293 0.28343,-1.33591 0.56685,-3.0642 0.85028,-5.07104 0.28342,-2.00684 0.56685,-4.29239 0.85027,-6.69889 0.28343,-2.4065 0.56685,-4.93283 0.85028,-7.40225 0.28343,-2.46942 0.56685,-4.87973 0.85028,-7.06321 0.28342,-2.18348 0.56685,-4.13716 0.85027,-5.72892 0.28343,-1.59177 0.56685,-2.81836 0.85028,-3.60415 0.28342,-0.78579 0.56685,-1.12775 0.85027,-1.01872 0.28343,0.10903 0.56685,0.67138 0.85028,1.62466 0.28342,0.95328 0.56685,2.29876 0.85027,3.9144 0.28343,1.61565 0.56685,3.50148 0.85028,5.49524"
       style="fill:#ffffff;fill-opacity:0.34517768;stroke:#000000;stroke-width:2.11567688;stroke-linecap:round;stroke-linejoin:round;stroke-miterlimit:4;stroke-dasharray:none;stroke-opacity:0.53299495"
       inkscape:connector-curvature="0" />
    <text
       xml:space="preserve"
       style="font-style:normal;font-weight:normal;font-size:80.3020401px;line-height:125%;font-family:sans-serif;letter-spacing:0px;word-spacing:0px;fill:#eeeeee;fill-opacity:1;stroke:#ffffff;stroke-width:3;stroke-linecap:butt;stroke-linejoin:miter;stroke-miterlimit:4;stroke-dasharray:none;stroke-opacity:0.35025383"
       x="374.00775"
       y="801.51593"
       id="text4288"
       sodipodi:linespacing="125%"><tspan
         sodipodi:role="line"
         id="tspan4290"
         x="374.00775"
         y="801.51593"
         style="text-align:center;text-anchor:middle;fill:#eeeeee;fill-opacity:1;stroke:#ffffff;stroke-width:3;stroke-miterlimit:4;stroke-dasharray:none;stroke-opacity:0.35025383">VDR-4</tspan></text>
    <text
       xml:space="preserve"
       style="font-style:normal;font-weight:normal;font-size:59.23437881px;line-height:125%;font-family:sans-serif;letter-spacing:0px;word-spacing:0px;fill:#eeeeee;fill-opacity:1;stroke:#ffffff;stroke-width:3;stroke-linecap:butt;stroke-linejoin:miter;stroke-miterlimit:4;stroke-dasharray:none;stroke-opacity:0.35025383"
       x="371.6857"
       y="629.18256"
       id="text4292"
       sodipodi:linespacing="125%"><tspan
         sodipodi:role="line"
         id="tspan4294"
         x="371.6857"
         y="629.18256"
         style="text-align:center;text-anchor:middle;fill:#eeeeee;fill-opacity:1;stroke:#ffffff;stroke-width:3;stroke-miterlimit:4;stroke-dasharray:none;stroke-opacity:0.35025383">Formation</tspan></text>
  </g>
</svg>
