<?xml version="1.0" encoding="UTF-8" standalone="no"?>
<!-- Created with Inkscape (http://www.inkscape.org/) -->

<svg
   xmlns:dc="http://purl.org/dc/elements/1.1/"
   xmlns:cc="http://creativecommons.org/ns#"
   xmlns:rdf="http://www.w3.org/1999/02/22-rdf-syntax-ns#"
   xmlns:svg="http://www.w3.org/2000/svg"
   xmlns="http://www.w3.org/2000/svg"
   xmlns:sodipodi="http://sodipodi.sourceforge.net/DTD/sodipodi-0.dtd"
   xmlns:inkscape="http://www.inkscape.org/namespaces/inkscape"
   inkscape:version="0.91 r13725"
   version="1.1"
   id="svg2"
   viewBox="0 0 405.59634 467.90912"
   height="132.05435mm"
   width="114.4683mm"
   sodipodi:docname="Formation VDR-4-2.svg">
  <sodipodi:namedview
     inkscape:bbox-nodes="true"
     inkscape:bbox-paths="true"
     inkscape:snap-bbox="true"
     inkscape:window-maximized="1"
     inkscape:window-y="27"
     inkscape:window-x="0"
     inkscape:window-height="836"
     inkscape:window-width="1440"
     showgrid="false"
     inkscape:current-layer="layer1"
     inkscape:document-units="px"
     inkscape:cy="0.53210606"
     inkscape:cx="-192.75089"
     inkscape:zoom="0.49497475"
     inkscape:pageshadow="2"
     inkscape:pageopacity="0.0"
     borderopacity="1.0"
     bordercolor="#666666"
     pagecolor="#ffffff"
     id="base"
     fit-margin-top="0"
     fit-margin-left="0"
     fit-margin-right="0"
     fit-margin-bottom="0"
     showguides="false"
     inkscape:snap-intersection-paths="true"
     inkscape:object-nodes="true"
     inkscape:snap-smooth-nodes="true"
     inkscape:snap-midpoints="true"
     inkscape:snap-bbox-midpoints="true"
     inkscape:snap-bbox-edge-midpoints="true"
     inkscape:snap-global="false" />
  <defs
     id="defs4" />
  <metadata
     id="metadata7">
    <rdf:RDF>
      <cc:Work
         rdf:about="">
        <dc:format>image/svg+xml</dc:format>
        <dc:type
           rdf:resource="http://purl.org/dc/dcmitype/StillImage" />
        <dc:title />
      </cc:Work>
    </rdf:RDF>
  </metadata>
  <g
     inkscape:label="Calque 1"
     inkscape:groupmode="layer"
     id="layer1"
     transform="translate(-169.24907,-446.97903)">
    <path
       sodipodi:type="star"
       style="fill:#126ea6;fill-opacity:1;stroke:#4d4d4d;stroke-width:6;stroke-linecap:round;stroke-linejoin:round;stroke-miterlimit:4;stroke-dasharray:none"
       id="path4286"
       sodipodi:sides="6"
       sodipodi:cx="372.04724"
       sodipodi:cy="680.93359"
       sodipodi:r1="232.55458"
       sodipodi:r2="201.39816"
       sodipodi:arg1="0.52359878"
       sodipodi:arg2="1.0471976"
       inkscape:flatsided="true"
       inkscape:rounded="0"
       inkscape:randomized="0"
       d="M 573.44541,797.21088 372.04724,913.48817 170.64906,797.21088 l 0,-232.55458 201.39818,-116.27729 201.39817,116.27729 z" />
    <path
       style="fill:#000000;fill-opacity:0.284264;stroke:#4d4d4d;stroke-width:2.79999995;stroke-linecap:round;stroke-linejoin:round;stroke-miterlimit:4;stroke-dasharray:none;stroke-opacity:1"
       d=""
       title="sin(x)*sin(.5x)"
       id="path4310"
       inkscape:connector-curvature="0" />
    <path
       id="path4337"
       title="sin(x)+sin(.5x)"
       d=""
       style="fill:#000000;fill-opacity:0.284264;stroke:#4d4d4d;stroke-width:2.79999995;stroke-linecap:round;stroke-linejoin:round;stroke-miterlimit:4;stroke-dasharray:none;stroke-opacity:1"
       inkscape:connector-curvature="0" />
    <text
       xml:space="preserve"
       style="font-style:normal;font-variant:normal;font-weight:600;font-stretch:normal;font-size:82.5671463px;line-height:125%;font-family:'Latin Modern Sans Demi Cond';-inkscape-font-specification:'Latin Modern Sans Demi Cond, Semi-Bold';text-align:center;letter-spacing:0px;word-spacing:0px;writing-mode:lr-tb;text-anchor:middle;fill:#ffffff;fill-opacity:1;stroke:none;stroke-width:3;stroke-linecap:butt;stroke-linejoin:miter;stroke-miterlimit:4;stroke-dasharray:none;stroke-opacity:1"
       x="372.19626"
       y="805.95697"
       id="text4288"
       sodipodi:linespacing="125%"><tspan
         sodipodi:role="line"
         id="tspan4290"
         x="372.19626"
         y="805.95697"
         style="font-style:normal;font-variant:normal;font-weight:600;font-stretch:normal;font-size:82.5671463px;line-height:125%;font-family:'Latin Modern Sans Demi Cond';-inkscape-font-specification:'Latin Modern Sans Demi Cond, Semi-Bold';text-align:center;writing-mode:lr-tb;text-anchor:middle;fill:#ffffff;fill-opacity:1;stroke:none;stroke-width:3;stroke-miterlimit:4;stroke-dasharray:none;stroke-opacity:1">VDR-4</tspan></text>
    <text
       xml:space="preserve"
       style="font-style:normal;font-variant:normal;font-weight:600;font-stretch:normal;font-size:78.27597046px;line-height:125%;font-family:'Latin Modern Sans Demi Cond';-inkscape-font-specification:'Latin Modern Sans Demi Cond, Semi-Bold';text-align:center;letter-spacing:0px;word-spacing:0px;writing-mode:lr-tb;text-anchor:middle;fill:#ffffff;fill-opacity:1;stroke:none;stroke-width:3;stroke-linecap:butt;stroke-linejoin:miter;stroke-miterlimit:4;stroke-dasharray:none;stroke-opacity:1"
       x="371.00702"
       y="632.07928"
       id="text4292"
       sodipodi:linespacing="125%"><tspan
         sodipodi:role="line"
         id="tspan4294"
         x="371.00702"
         y="632.07928"
         style="font-style:normal;font-variant:normal;font-weight:600;font-stretch:normal;font-size:78.27597046px;line-height:125%;font-family:'Latin Modern Sans Demi Cond';-inkscape-font-specification:'Latin Modern Sans Demi Cond, Semi-Bold';text-align:center;writing-mode:lr-tb;text-anchor:middle;fill:#ffffff;fill-opacity:1;stroke:none;stroke-width:3;stroke-miterlimit:4;stroke-dasharray:none;stroke-opacity:1">Formation</tspan></text>
    <flowRoot
       xml:space="preserve"
       id="flowRoot5929"
       style="fill:black;stroke:none;stroke-opacity:1;stroke-width:1px;stroke-linejoin:miter;stroke-linecap:butt;fill-opacity:1;font-family:sans-serif;font-style:normal;font-weight:normal;font-size:17.5px;line-height:125%;letter-spacing:0px;word-spacing:0px"><flowRegion
         id="flowRegion5931"><rect
           id="rect5933"
           width="1217.1428"
           height="745.71429"
           x="-271.42856"
           y="-157.80516" /></flowRegion><flowPara
         id="flowPara5935"></flowPara></flowRoot>    <path
       id="path4651-9"
       title="sin(x)+0.7*sin(8*x)"
       d="m 202.51874,691.36608 339.057,0 m -339.057,28.61591 0,-57.23183 m 0,28.61592 c 0.28326,-3.15564 0.56651,-6.30993 0.84977,-9.25277 0.28325,-2.94284 0.56651,-5.6709 0.84976,-8.00861 0.28326,-2.33769 0.56652,-4.28118 0.84977,-5.71711 0.28325,-1.43595 0.56652,-2.36059 0.84977,-2.74076 0.28325,-0.38018 0.56651,-0.21281 0.84977,0.44994 0.28324,0.66275 0.56651,1.82277 0.84976,3.35097 0.28326,1.5282 0.5665,3.42498 0.84977,5.50485 0.28326,2.07986 0.56651,4.34171 0.84977,6.57315 0.28325,2.23144 0.56651,4.43002 0.84976,6.39024 0.28326,1.96024 0.56651,3.67871 0.84978,4.98956 0.28324,1.31082 0.5665,2.21017 0.84976,2.59815 0.28326,0.38797 0.5665,0.26094 0.84977,-0.39908 0.28325,-0.66003 0.56651,-1.85592 0.84976,-3.52079 0.28326,-1.66488 0.56651,-3.80035 0.84976,-6.26528 0.28326,-2.46493 0.56652,-5.25942 0.84977,-8.19033 0.28326,-2.93092 0.56651,-5.99685 0.84977,-8.98328 0.28326,-2.98642 0.56651,-5.8906 0.84976,-8.51061 0.28327,-2.62 0.56652,-4.95223 0.84977,-6.83929 0.28327,-1.88705 0.56652,-3.32503 0.84977,-4.22602 0.28326,-0.90099 0.56652,-1.26136 0.84977,-1.07662 0.28326,0.18474 0.56651,0.91739 0.84977,2.11837 0.28325,1.201 0.56651,2.87181 0.84976,4.86153 0.28326,1.98969 0.56651,4.29825 0.84977,6.72729 0.28325,2.42906 0.56652,4.97707 0.84976,7.42976 0.28326,2.45271 0.56652,4.80732 0.84977,6.86769 0.28325,2.06036 0.56652,3.82288 0.84977,5.1407 0.28325,1.3178 0.56651,2.18709 0.84977,2.53351 0.28325,0.34643 0.56651,0.16661 0.84976,-0.5294 0.28326,-0.69603 0.56652,-1.9107 0.84977,-3.55117 0.28326,-1.64046 0.56651,-3.70785 0.84977,-6.04121 0.28325,-2.33339 0.56651,-4.93232 0.84977,-7.59339 0.28325,-2.66106 0.5665,-5.38236 0.84977,-7.95017 0.28325,-2.56783 0.5665,-4.97909 0.84976,-7.04378 0.28326,-2.06469 0.5665,-3.77901 0.84977,-5.00677 0.28325,-1.22776 0.56651,-1.96505 0.84976,-2.15114 0.28326,-0.18611 0.56651,0.1824 0.84978,1.08111 0.28324,0.89871 0.5665,2.33002 0.84976,4.18824 0.28325,1.85823 0.5665,4.14436 0.84976,6.68817 0.28326,2.54382 0.56651,5.34476 0.84977,8.19504 0.28326,2.85028 0.56652,5.74789 0.84976,8.48038 0.28327,2.73249 0.56652,5.29675 0.84977,7.50933 0.28326,2.21256 0.56652,4.06974 0.84977,5.4461 0.28326,1.37637 0.56651,2.2682 0.84977,2.62803 0.28326,0.35983 0.56651,0.18448 0.84976,-0.48813 0.28327,-0.67262 0.56651,-1.84457 0.84977,-3.39862 0.28325,-1.55408 0.56652,-3.4909 0.84976,-5.63263 0.28326,-2.14173 0.56652,-4.48745 0.84978,-6.82698 0.28324,-2.33953 0.56651,-4.67052 0.84976,-6.78389 0.28325,-2.11335 0.56651,-4.0057 0.84977,-5.50223 0.28326,-1.49653 0.56651,-2.59336 0.84977,-3.17783 0.28325,-0.58447 0.56652,-0.65278 0.84976,-0.17238 0.28326,0.48042 0.56652,1.51267 0.84978,3.04398 0.28324,1.53129 0.5665,3.5636 0.84976,5.96707 0.28325,2.40347 0.5665,5.17855 0.84977,8.13889 0.28325,2.96035 0.5665,6.10485 0.84976,9.22011 0.28326,3.11523 0.56651,6.19875 0.84977,9.04384 0.28325,2.84508 0.56651,5.44828 0.84976,7.64232 0.28326,2.19403 0.56651,3.97503 0.84978,5.24157 0.28324,1.26655 0.5665,2.01497 0.84976,2.22569 0.28326,0.21071 0.56651,-0.11918 0.84977,-0.92429 0.28326,-0.80514 0.5665,-2.08722 0.84976,-3.70649 0.28326,-1.61927 0.56652,-3.5759 0.84976,-5.67798 0.28327,-2.10211 0.56652,-4.34829 0.84978,-6.52507 0.28325,-2.17678 0.56651,-4.28147 0.84976,-6.11293 0.28326,-1.83144 0.56651,-3.3861 0.84977,-4.50714 0.28326,-1.12106 0.56651,-1.80463 0.84976,-1.96328 0.28327,-0.15862 0.56652,0.21126 0.84977,1.11383 0.28326,0.90258 0.56652,2.34056 0.84976,4.23406 0.28326,1.89349 0.56652,4.24392 0.84978,6.89993 0.28324,2.65599 0.56651,5.61748 0.84977,8.68553 0.28325,3.06806 0.56651,6.24106 0.84976,9.30408 0.28326,3.063 0.56652,6.01313 0.84977,8.65338 0.28325,2.64024 0.56652,4.96691 0.84976,6.83213 0.28326,1.86522 0.56652,3.26509 0.84978,4.12424 0.28324,0.85915 0.56651,1.17407 0.84976,0.95377 0.28326,-0.22029 0.56651,-0.97835 0.84977,-2.18226 0.28325,-1.20392 0.5665,-2.85491 0.84976,-4.79282 0.28326,-1.93791 0.56651,-4.16244 0.84977,-6.47065 0.28325,-2.30822 0.56651,-4.69834 0.84977,-6.95695 0.28325,-2.25861 0.5665,-4.38273 0.84977,-6.18234 0.28325,-1.79962 0.5665,-3.27105 0.84977,-4.27793 0.28325,-1.00687 0.5665,-1.54537 0.84976,-1.55442 0.28326,-0.009 0.56651,0.51463 0.84977,1.54711 0.28325,1.03248 0.56651,2.57601 0.84975,4.52538 0.28327,1.94935 0.56652,4.30539 0.84978,6.89825 0.28325,2.59287 0.56651,5.42188 0.84976,8.27946 0.28327,2.85758 0.56651,5.74161 0.84977,8.43972 0.28326,2.6981 0.56651,5.20702 0.84976,7.34327 0.28327,2.13624 0.56652,3.89595 0.84977,5.15358 0.28326,1.25762 0.56652,2.00926 0.84977,2.20729 0.28326,0.19801 0.56652,-0.1609 0.84977,-1.03897 0.28326,-0.87809 0.56651,-2.27754 0.84977,-4.08117 0.28325,-1.80364 0.56651,-4.01222 0.84976,-6.44773 0.28326,-2.43551 0.56652,-5.09715 0.84977,-7.77432 0.28325,-2.67717 0.56652,-5.36767 0.84977,-7.86171 0.28325,-2.49404 0.56651,-4.78835 0.84977,-6.70722 0.28324,-1.91889 0.56651,-3.45857 0.84976,-4.50528 0.28326,-1.0467 0.56651,-1.59676 0.84977,-1.61636 0.28325,-0.0196 0.56652,0.49425 0.84976,1.49005 0.28326,0.99579 0.56651,2.47537 0.84977,4.31009 0.28325,1.83473 0.56651,4.02497 0.84978,6.38546 0.28324,2.36049 0.5665,4.89004 0.84976,7.37616 0.28326,2.48613 0.5665,4.92626 0.84977,7.11448 0.28325,2.1882 0.5665,4.12096 0.84976,5.63156 0.28326,1.51061 0.56651,2.59512 0.84977,3.15262 0.28325,0.5575 0.56651,0.58423 0.84977,0.0611 0.28325,-0.52313 0.5665,-1.59909 0.84976,-3.16206 0.28325,-1.56298 0.56651,-3.61468 0.84976,-6.01477 0.28327,-2.40007 0.56651,-5.14872 0.84977,-8.05327 0.28326,-2.90452 0.56652,-5.96363 0.84976,-8.96276 0.28327,-2.99913 0.56652,-5.93566 0.84978,-8.60716 0.28326,-2.6715 0.56651,-5.07447 0.84977,-7.05065 0.28325,-1.97619 0.56651,-3.52174 0.84976,-4.54763 0.28327,-1.02588 0.56651,-1.52853 0.84977,-1.50216 0.28326,0.0264 0.56652,0.58451 0.84976,1.59607 0.28326,1.01156 0.56652,2.47798 0.84977,4.2494 0.28325,1.77143 0.56652,3.84772 0.84977,6.03132 0.28325,2.18361 0.56651,4.47291 0.84977,6.65404 0.28325,2.18113 0.56651,4.25122 0.84976,6.0142 0.28326,1.76294 0.56651,3.21507 0.84977,4.20924 0.28325,0.99415 0.56652,1.52644 0.84976,1.52207 0.28326,-0.005 0.56653,-0.54888 0.84978,-1.62397 0.28325,-1.07508 0.5665,-2.68328 0.84977,-4.73212 0.28324,-2.04884 0.5665,-4.53951 0.84976,-7.31118 0.28326,-2.77166 0.5665,-5.82398 0.84977,-8.95321 0.28325,-3.12923 0.56651,-6.33355 0.84976,-9.3985 0.28326,-3.06497 0.56651,-5.98755 0.84977,-8.57656 0.28325,-2.58903 0.56651,-4.84073 0.84977,-6.61745 0.28325,-1.77671 0.5665,-3.07455 0.84977,-3.83106 0.28325,-0.75651 0.5665,-0.96832 0.84975,-0.658 0.28327,0.31029 0.56652,1.14507 0.84977,2.40031 0.28326,1.25526 0.56652,2.93194 0.84977,4.86129 0.28326,1.92935 0.56652,4.11078 0.84977,6.33757 0.28326,2.2268 0.56651,4.49693 0.84977,6.59861 0.28326,2.10171 0.56651,4.03182 0.84976,5.60722 0.28327,1.57538 0.56651,2.7923 0.84977,3.52534 0.28326,0.73305 0.56652,0.97846 0.84976,0.68859 0.28327,-0.28987 0.56652,-1.11822 0.84978,-2.44732 0.28324,-1.32908 0.56651,-3.16102 0.84976,-5.37858 0.28325,-2.21759 0.56651,-4.82147 0.84977,-7.63356 0.28325,-2.81209 0.56651,-5.83147 0.84976,-8.8473 0.28326,-3.01584 0.56652,-6.02583 0.84977,-8.81977 0.28325,-2.79395 0.56652,-5.36848 0.84977,-7.54739 0.28325,-2.17889 0.56652,-3.95825 0.84977,-5.22369 0.28325,-1.26543 0.56651,-2.01313 0.84977,-2.2087 0.28325,-0.19555 0.5665,0.16419 0.84976,1.02827 0.28326,0.86407 0.5665,2.23447 0.84977,3.98298 0.28325,1.74852 0.56651,3.87564 0.84976,6.19632 0.28326,2.32068 0.56651,4.83387 0.84978,7.32702 0.28324,2.49315 0.5665,4.96387 0.84976,7.20587 0.28326,2.242 0.5665,4.25193 0.84977,5.8625 0.28325,1.61058 0.5665,2.81802 0.84976,3.52064 0.28326,0.70262 0.56651,0.89682 0.84977,0.56263 0.28326,-0.3342 0.56651,-1.19962 0.84977,-2.53131 0.28325,-1.33172 0.56651,-3.1313 0.84976,-5.25926 0.28326,-2.12797 0.56651,-4.58439 0.84977,-7.17729 0.28326,-2.5929 0.56651,-5.32082 0.84976,-7.96984 0.28327,-2.64903 0.56652,-5.21637 0.84977,-7.50006 0.28326,-2.28367 0.56652,-4.28005 0.84976,-5.83115 0.28327,-1.55109 0.56652,-2.65297 0.84978,-3.21677 0.28325,-0.56379 0.56651,-0.58584 0.84976,-0.0605 0.28326,0.52532 0.56651,1.60078 0.84977,3.14785 0.28325,1.54707 0.56651,3.56727 0.84976,5.91029 0.28326,2.34304 0.56653,5.00888 0.84977,7.79937 0.28326,2.79046 0.56652,5.70404 0.84978,8.52597 0.28324,2.82193 0.56651,5.54946 0.84976,7.98534 0.28325,2.4359 0.56651,4.57656 0.84977,6.27352 0.28325,1.69696 0.56651,2.94641 0.84976,3.6721 0.28326,0.72569 0.56651,0.9242 0.84977,0.60359 0.28325,-0.32061 0.56651,-1.16283 0.84977,-2.43568 0.28325,-1.27284 0.5665,-2.97745 0.84977,-4.95437 0.28324,-1.97692 0.5665,-4.22577 0.84976,-6.54402 0.28326,-2.31827 0.5665,-4.70405 0.84977,-6.944 0.28325,-2.23994 0.56651,-4.33096 0.84977,-6.08272 0.28325,-1.75176 0.56651,-3.16049 0.84976,-4.0892 0.28326,-0.92869 0.56651,-1.37346 0.84978,-1.27244 0.28324,0.10099 0.5665,0.75123 0.84975,1.92745 0.28327,1.17621 0.56651,2.8808 0.84977,5.00914 0.28326,2.12832 0.56651,4.68139 0.84976,7.48959 0.28327,2.8082 0.56652,5.87098 0.84977,8.98064 0.28326,3.10967 0.56652,6.26422 0.84977,9.25067 0.28326,2.98647 0.56651,5.8017 0.84977,8.2612 0.28325,2.45948 0.56651,4.55948 0.84976,6.17306 0.28327,1.6136 0.56651,2.737 0.84977,3.32097 0.28326,0.58398 0.56652,0.6253 0.84977,0.16015 0.28325,-0.46515 0.56652,-1.43892 0.84976,-2.80558 0.28326,-1.36668 0.56652,-3.12695 0.84978,-5.10404 0.28324,-1.97709 0.56651,-4.17012 0.84976,-6.36938 0.28326,-2.19925 0.56651,-4.40245 0.84977,-6.40028 0.28325,-1.99783 0.56652,-3.78699 0.84976,-5.19184 0.28326,-1.40486 0.56652,-2.42161 0.84977,-2.93631 0.28325,-0.51471 0.56652,-0.52362 0.84977,0.007 0.28325,0.53094 0.5665,1.60482 0.84977,3.17035 0.28325,1.56553 0.5665,3.62463 0.84976,6.04871 0.28326,2.42408 0.56651,5.21359 0.84977,8.18295 0.28326,2.96936 0.56651,6.11748 0.84977,9.23116 0.28325,3.11367 0.56651,6.19041 0.84977,9.02315 0.28325,2.83273 0.5665,5.41798 0.84977,7.58757 0.28324,2.16959 0.5665,3.9196 0.84976,5.14733 0.28326,1.22773 0.5665,1.92947 0.84976,2.08418 0.28326,0.15473 0.56652,-0.2405 0.84976,-1.12172 0.28327,-0.88122 0.56652,-2.25016 0.84977,-3.96809 0.28326,-1.71794 0.56652,-3.78511 0.84977,-6.01011 0.28326,-2.225 0.56651,-4.60655 0.84977,-6.93102 0.28326,-2.32446 0.56651,-4.58923 0.84977,-6.59238 0.28326,-2.00314 0.56651,-3.74117 0.84976,-5.05595 0.28327,-1.31479 0.56652,-2.20252 0.84977,-2.574 0.28325,-0.37147 0.56652,-0.22317 0.84977,0.45096 0.28325,0.67413 0.56651,1.87677 0.84977,3.5298 0.28324,1.65305 0.56651,3.75787 0.84976,6.16462 0.28326,2.40674 0.56651,5.11524 0.84977,7.92759 0.28325,2.81234 0.56652,5.72687 0.84976,8.52901 0.28326,2.80213 0.56652,5.48896 0.84978,7.86322 0.28324,2.37427 0.56651,4.43226 0.84976,6.02537 0.28325,1.59311 0.56651,2.71738 0.84977,3.29639 0.28326,0.579 0.5665,0.60921 0.84977,0.0984 0.28325,-0.51075 0.56651,-1.56508 0.84976,-3.07205 0.28326,-1.50696 0.56651,-3.46784 0.84977,-5.72309 0.28325,-2.25526 0.56651,-4.80464 0.84977,-7.44528 0.28325,-2.64064 0.5665,-5.37079 0.84977,-7.9765 0.28325,-2.6057 0.5665,-5.084 0.84976,-7.24374 0.28326,-2.15972 0.5665,-3.99723 0.84977,-5.37444 0.28325,-1.37722 0.56651,-2.29038 0.84975,-2.67642 0.28327,-0.38605 0.56652,-0.24167 0.84978,0.41116 0.28325,0.65287 0.56651,1.81646 0.84976,3.38742 0.28326,1.57094 0.56652,3.55014 0.84977,5.76914 0.28327,2.219 0.56651,4.67714 0.84977,7.16774 0.28326,2.49058 0.56652,5.01151 0.84976,7.35065 0.28327,2.33913 0.56652,4.49324 0.84977,6.27847 0.28326,1.78523 0.56652,3.19772 0.84977,4.11113 0.28326,0.9134 0.56651,1.32383 0.84977,1.18254 0.28325,-0.14131 0.56651,-0.83763 0.84976,-2.05232 0.28326,-1.21471 0.56652,-2.94998 0.84977,-5.08957 0.28325,-2.13957 0.56652,-4.6842 0.84976,-7.45634 0.28326,-2.77215 0.56652,-5.771 0.84978,-8.78587 0.28324,-3.01488 0.56651,-6.04354 0.84977,-8.87552 0.28325,-2.83197 0.56651,-5.46398 0.84976,-7.71902 0.28326,-2.25505 0.56651,-4.12934 0.84977,-5.50741 0.28325,-1.37807 0.56651,-2.25621 0.84976,-2.59869 0.28326,-0.34249 0.56651,-0.14629 0.84978,0.53896 0.28324,0.68524 0.5665,1.86142 0.84976,3.40152 0.28325,1.54008 0.5665,3.4445 0.84977,5.52907 0.28325,2.08457 0.5665,4.34818 0.84976,6.57883 0.28326,2.23065 0.56651,4.42585 0.84977,6.37947 0.28325,1.95365 0.56651,3.66228 0.84976,4.95845 0.28326,1.29618 0.56651,2.17604 0.84977,2.53747 0.28326,0.36145 0.56651,0.20077 0.84977,-0.50248 0.28326,-0.70325 0.56651,-1.952 0.84976,-3.68173 0.28327,-1.72974 0.56651,-3.94214 0.84977,-6.49791 0.28326,-2.55575 0.56652,-5.45505 0.84976,-8.50572 0.28327,-3.05067 0.56652,-6.25139 0.84978,-9.38758 0.28325,-3.13617 0.56651,-6.20516 0.84976,-9.00392 0.28327,-2.79875 0.56651,-5.32372 0.84977,-7.4155 0.28326,-2.09177 0.56651,-3.74648 0.84976,-4.87356 0.28326,-1.12709 0.56652,-1.72294 0.84977,-1.78014 0.28325,-0.0572 0.56652,0.427 0.84977,1.37581 0.28325,0.94882 0.56652,2.36372 0.84977,4.09599 0.28325,1.73226 0.56651,3.78184 0.84977,5.95175 0.28325,2.16989 0.56651,4.45858 0.84976,6.65212 0.28326,2.19356 0.56652,4.28917 0.84977,6.09004 0.28325,1.80089 0.56652,3.30343 0.84976,4.35922 0.28326,1.05579 0.56651,1.661 0.84978,1.73927 0.28324,0.0783 0.5665,-0.37388 0.84976,-1.34856 0.28326,-0.97466 0.5665,-2.47441 0.84977,-4.40829 0.28325,-1.93389 0.5665,-4.3031 0.84976,-6.94804 0.28326,-2.64494 0.56651,-5.56526 0.84977,-8.55789 0.28325,-2.99263 0.56651,-6.05574 0.84977,-8.97502 0.28325,-2.91928 0.56651,-5.69166 0.84977,-8.1255 0.28325,-2.43384 0.5665,-4.52535 0.84977,-6.1359 0.28325,-1.61055 0.5665,-2.73623 0.84975,-3.31335 0.28327,-0.57711 0.56652,-0.60225 0.84977,-0.0967 0.28326,0.50551 0.56652,1.54409 0.84977,3.0128 0.28326,1.46871 0.56651,3.36859 0.84977,5.53148 0.28325,2.16289 0.56651,4.58827 0.84976,7.0695 0.28327,2.48124 0.56651,5.01634 0.84977,7.39297 0.28326,2.37663 0.56652,4.5917 0.84976,6.46085 0.28327,1.86916 0.56652,3.3887 0.84977,4.43159 0.28325,1.04288 0.56652,1.60536 0.84978,1.63785 0.28324,0.0325 0.56651,-0.46816 0.84976,-1.46622 0.28326,-0.99805 0.56651,-2.49559 0.84977,-4.37717 0.28325,-1.88157 0.56651,-4.14785 0.84976,-6.62203 0.28326,-2.47417 0.56652,-5.15535 0.84977,-7.83346 0.28325,-2.6781 0.56652,-5.35081 0.84977,-7.80807 0.28325,-2.45727 0.56651,-4.6957 0.84977,-6.53865 0.28324,-1.84295 0.5665,-3.2865 0.84976,-4.2154 0.28326,-0.92889 0.5665,-1.33931 0.84977,-1.19573 0.28325,0.14357 0.56651,0.8443 0.84976,2.05232 0.28326,1.208 0.56651,2.92528 0.84977,5.02444 0.28326,2.09915 0.56651,4.58071 0.84978,7.25995 0.28324,2.67923 0.5665,5.55514 0.84976,8.41491 0.28326,2.85977 0.5665,5.70101 0.84977,8.31659 0.28325,2.61558 0.56651,5.00212 0.84976,6.99094 0.28326,1.98882 0.56651,3.57614 0.84976,4.65843 0.28326,1.08228 0.56652,1.65592 0.84977,1.69893 0.28326,0.043 0.56651,-0.44744 0.84977,-1.40838 0.28326,-0.96094 0.56651,-2.39399 0.84976,-4.16125 0.28327,-1.76726 0.56651,-3.86889 0.84977,-6.11399 0.28326,-2.24511 0.56652,-4.63232 0.84976,-6.94816 0.28327,-2.31585 0.56653,-4.55763 0.84978,-6.52323 0.28326,-1.9656 0.56651,-3.6514 0.84977,-4.89877 0.28324,-1.24738 0.56651,-2.05241 0.84976,-2.32515 0.28326,-0.27275 0.56651,-0.01 0.84977,0.79631 0.28325,0.80591 0.56652,2.15734 0.84976,3.97688 0.28326,1.81954 0.56652,4.10868 0.84977,6.71796 0.28325,2.60928 0.56652,5.53866 0.84977,8.59026 0.28325,3.0516 0.56651,6.22386 0.84977,9.30178 0.28325,3.07793 0.56651,6.05871 0.84976,8.74424 0.28326,2.68553 0.56651,5.07218 0.84977,7.01011 0.28325,1.93793 0.56651,3.42327 0.84977,4.37808 0.28325,0.95482 0.56651,1.37564 0.84977,1.26872 0.28325,-0.10692 0.5665,-0.74409 0.84977,-1.82217 0.28325,-1.07809 0.5665,-2.59828 0.84976,-4.40236 0.28326,-1.80407 0.5665,-3.89172 0.84977,-6.06108 0.28325,-2.16934 0.56651,-4.41861 0.84976,-6.53441 0.28326,-2.11579 0.56651,-4.09513 0.84978,-5.74706 0.28324,-1.65193 0.5665,-2.97273 0.84975,-3.82429 0.28326,-0.85156 0.56651,-1.23001 0.84977,-1.07206 0.28326,0.15794 0.56651,0.85565 0.84976,2.07145 0.28327,1.2158 0.56652,2.95206 0.84977,5.1055 0.28327,2.15343 0.56652,4.72499 0.84977,7.54611 0.28326,2.82109 0.56652,5.89115 0.84977,9.00292 0.28326,3.11176 0.56651,6.26317 0.84977,9.24116 0.28326,2.97797 0.56651,5.77932 0.84976,8.21882 0.28326,2.43949 0.56651,4.5133 0.84977,6.09341 0.28325,1.5801 0.56652,2.66261 0.84976,3.19694 0.28326,0.53432 0.56652,0.51716 0.84978,-0.0167 0.28324,-0.53389 0.56651,-1.58671 0.84976,-3.0439 0.28325,-1.45721 0.56651,-3.31956 0.84977,-5.41096 0.28325,-2.0914 0.56651,-4.41107 0.84976,-6.74937 0.28326,-2.3383 0.56653,-4.69303 0.84977,-6.85433 0.28326,-2.16129 0.56652,-4.12591 0.84978,-5.71709 0.28324,-1.59118 0.5665,-2.80517 0.84976,-3.52642 0.28325,-0.72124 0.5665,-0.94606 0.84977,-0.63853 0.28325,0.30754 0.5665,1.15046 0.84976,2.47934 0.28326,1.32888 0.56651,3.14559 0.84977,5.32318 0.28325,2.17757 0.56651,4.71641 0.84976,7.43212 0.28326,2.71569 0.56651,5.60712 0.84978,8.46165 0.28324,2.85454 0.5665,5.66966 0.84976,8.23827 0.28326,2.5686 0.5665,4.88719 0.84976,6.78699 0.28326,1.89979 0.56651,3.37686 0.84977,4.3275 0.28326,0.95065 0.56652,1.37112 0.84976,1.23926 0.28327,-0.13187 0.56652,-0.81907 0.84978,-1.99871 0.28325,-1.17964 0.56651,-2.8535 0.84976,-4.88365 0.28326,-2.03012 0.56651,-4.41683 0.84977,-6.96897 0.28326,-2.55214 0.56651,-5.26847 0.84976,-7.93502 0.28327,-2.66655 0.56652,-5.28076 0.84977,-7.63974 0.28326,-2.35897 0.56652,-4.45924 0.84976,-6.14118 0.28326,-1.68193 0.56652,-2.94172 0.84978,-3.68831 0.28324,-0.74658 0.56651,-0.97643 0.84976,-0.68147 0.28326,0.29497 0.56651,1.11744 0.84977,2.39123 0.28326,1.27379 0.56652,3.00031 0.84977,5.03128 0.28325,2.03096 0.56652,4.36624 0.84976,6.809 0.28326,2.44276 0.56652,4.99136 0.84978,7.43166 0.28324,2.44031 0.56651,4.76944 0.84976,6.78999 0.28326,2.02055 0.5665,3.72883 0.84977,4.97553 0.28325,1.2467 0.5665,2.02788 0.84976,2.2661 0.28326,0.23822 0.56651,-0.0701 0.84977,-0.91814 0.28325,-0.84807 0.56651,-2.23854 0.84977,-4.08149 0.28325,-1.84294 0.5665,-4.13964 0.84977,-6.73119 0.28324,-2.59154 0.5665,-5.47769 0.84976,-8.45568 0.28326,-2.97799 0.56651,-6.04609 0.84977,-8.98981 0.28326,-2.94372 0.56651,-5.76014 0.84976,-8.25695 0.28326,-2.49681 0.56652,-4.67036 0.84976,-6.38102 0.28327,-1.71065 0.56652,-2.95459 0.84978,-3.66694 0.28325,-0.71233 0.56651,-0.88971 0.84976,-0.55215 0.28327,0.33755 0.56651,1.19237 0.84977,2.46276 0.28326,1.27038 0.56651,2.9573 0.84976,4.89357 0.28327,1.93629 0.56652,4.12135 0.84977,6.34919 0.28326,2.22785 0.56652,4.49645 0.84977,6.59374 0.28326,2.09729 0.56651,4.02009 0.84977,5.584 0.28325,1.56394 0.56651,2.76518 0.84977,3.47635 0.28325,0.71118 0.56651,0.92844 0.84976,0.60176 0.28326,-0.32669 0.56652,-1.20059 0.84977,-2.58645 0.28325,-1.38584 0.56652,-3.28578 0.84977,-5.5847 0.28325,-2.29891 0.56651,-4.99753 0.84977,-7.91903 0.28324,-2.92149 0.56651,-6.06507 0.84976,-9.22018 0.28326,-3.15512 0.56651,-6.31956 0.84977,-9.28237 0.28325,-2.9628 0.56651,-5.72068 0.84976,-8.09567 0.28326,-2.37499 0.56651,-4.36322 0.84977,-5.84788 0.28325,-1.48466 0.56651,-2.46195 0.84977,-2.89457 0.28325,-0.4326 0.5665,-0.31744 0.84977,0.29743 0.28325,0.61487 0.5665,1.73139 0.84977,3.22382 0.28325,1.49241 0.5665,3.36125 0.84976,5.42308 0.28326,2.06182 0.56651,4.31562 0.84977,6.54956 0.28325,2.23392 0.56651,4.4456 0.84977,6.42838 0.28325,1.9828 0.5665,3.73334 0.84976,5.08314 0.28325,1.34981 0.56651,2.29502 0.84976,2.7321 0.28327,0.43709 0.56651,0.36236 0.84977,-0.24631 0.28326,-0.60868 0.56652,-1.7542 0.84976,-3.37372 0.28327,-1.61951 0.56652,-3.71471 0.84978,-6.14758 0.28325,-2.43288 0.56651,-5.20363 0.84976,-8.12101 0.28326,-2.91738 0.56651,-5.98003 0.84977,-8.97369 0.28327,-2.99366 0.56651,-5.91565 0.84977,-8.56266 0.28325,-2.64702 0.56652,-5.01545 0.84976,-6.94513 0.28326,-1.92969 0.56652,-3.41668 0.84977,-4.36929 0.28325,-0.9526 0.56652,-1.36715 0.84977,-1.23498 0.28325,0.13218 0.56651,0.81391 0.84977,1.96957 0.28325,1.15565 0.56651,2.78676 0.84976,4.74539 0.28326,1.95864 0.56651,4.24482 0.84977,6.66183"
       style="fill:#ffffff;fill-opacity:0.34517768;stroke:#000000;stroke-width:2.20142388;stroke-linecap:round;stroke-linejoin:round;stroke-miterlimit:4;stroke-dasharray:none;stroke-opacity:0.53299495"
       inkscape:connector-curvature="0" />
    <path
       style="fill:#000000;fill-opacity:0.284264;stroke:#4d4d4d;stroke-width:2.79999995;stroke-linecap:round;stroke-linejoin:round;stroke-miterlimit:4;stroke-dasharray:none;stroke-opacity:1"
       d=""
       title="sin(x)*sin(.5x)"
       id="path4310-3"
       inkscape:connector-curvature="0" />
    <path
       id="path4337-3"
       title="sin(x)+sin(.5x)"
       d=""
       style="fill:#000000;fill-opacity:0.284264;stroke:#4d4d4d;stroke-width:2.79999995;stroke-linecap:round;stroke-linejoin:round;stroke-miterlimit:4;stroke-dasharray:none;stroke-opacity:1"
       inkscape:connector-curvature="0" />
    <flowRoot
       transform="translate(-356.79792,456.67972)"
       xml:space="preserve"
       id="flowRoot5929-9"
       style="font-style:normal;font-weight:normal;font-size:17.5px;line-height:125%;font-family:sans-serif;letter-spacing:0px;word-spacing:0px;fill:#000000;fill-opacity:1;stroke:none;stroke-width:1px;stroke-linecap:butt;stroke-linejoin:miter;stroke-opacity:1"><flowRegion
         id="flowRegion5931-4"><rect
           id="rect5933-4"
           width="1217.1428"
           height="745.71429"
           x="-271.42856"
           y="-157.80516" /></flowRegion><flowPara
         id="flowPara5935-6" /></flowRoot>  </g>
</svg>
