<?xml version="1.0" encoding="UTF-8" standalone="no"?>
<!-- Created with Inkscape (http://www.inkscape.org/) -->

<svg
   xmlns:dc="http://purl.org/dc/elements/1.1/"
   xmlns:cc="http://creativecommons.org/ns#"
   xmlns:rdf="http://www.w3.org/1999/02/22-rdf-syntax-ns#"
   xmlns:svg="http://www.w3.org/2000/svg"
   xmlns="http://www.w3.org/2000/svg"
   xmlns:xlink="http://www.w3.org/1999/xlink"
   xmlns:sodipodi="http://sodipodi.sourceforge.net/DTD/sodipodi-0.dtd"
   xmlns:inkscape="http://www.inkscape.org/namespaces/inkscape"
   sodipodi:docname="Fonctionnement phasitron.svg"
   inkscape:version="0.48.4 r9939"
   version="1.1"
   id="svg2"
   height="577.76849"
   width="796.54822"
   style="enable-background:new">
  <sodipodi:namedview
     id="base"
     pagecolor="#ffffff"
     bordercolor="#666666"
     borderopacity="1.0"
     inkscape:pageopacity="0.0"
     inkscape:pageshadow="2"
     inkscape:zoom="1.0257805"
     inkscape:cx="420.01253"
     inkscape:cy="237.0945"
     inkscape:document-units="px"
     inkscape:current-layer="layer9"
     showgrid="false"
     showguides="true"
     inkscape:guide-bbox="true"
     inkscape:snap-global="false"
     inkscape:window-width="1680"
     inkscape:window-height="1001"
     inkscape:window-x="-4"
     inkscape:window-y="-4"
     inkscape:window-maximized="1"
     inkscape:snap-grids="false"
     inkscape:snap-bbox="true"
     inkscape:snap-smooth-nodes="false"
     inkscape:bbox-nodes="true"
     inkscape:bbox-paths="false"
     inkscape:snap-bbox-edge-midpoints="true"
     inkscape:snap-bbox-midpoints="true"
     inkscape:object-paths="false"
     inkscape:snap-intersection-paths="true"
     inkscape:object-nodes="true"
     inkscape:snap-midpoints="true"
     inkscape:snap-object-midpoints="true"
     inkscape:snap-center="true"
     inkscape:snap-nodes="true"
     fit-margin-top="0"
     fit-margin-left="0"
     fit-margin-right="0"
     fit-margin-bottom="0">
    <inkscape:grid
       snapvisiblegridlinesonly="true"
       enabled="true"
       visible="true"
       empspacing="5"
       units="cm"
       id="grid2997"
       type="xygrid"
       originx="-331.72642px"
       originy="-801.92016px" />
    <sodipodi:guide
       orientation="0,1"
       position="-282.47694,-270.48108"
       id="guide10374" />
    <sodipodi:guide
       orientation="0,1"
       position="-282.47694,-182.23857"
       id="guide10376" />
  </sodipodi:namedview>
  <defs
     id="defs4">
    <marker
       inkscape:stockid="Arrow1Send"
       orient="auto"
       refY="0"
       refX="0"
       id="Arrow1Send"
       style="overflow:visible">
      <path
         id="path7869"
         d="M 0,0 5,-5 -12.5,0 5,5 0,0 z"
         style="fill-rule:evenodd;stroke:#000000;stroke-width:1pt"
         transform="matrix(-0.2,0,0,-0.2,-1.2,0)"
         inkscape:connector-curvature="0" />
    </marker>
    <marker
       inkscape:stockid="Arrow1Mend"
       orient="auto"
       refY="0"
       refX="0"
       id="Arrow1Mend"
       style="overflow:visible">
      <path
         id="path10936"
         d="M 0,0 5,-5 -12.5,0 5,5 0,0 z"
         style="fill-rule:evenodd;stroke:#000000;stroke-width:1pt"
         transform="matrix(-0.4,0,0,-0.4,-4,0)"
         inkscape:connector-curvature="0" />
    </marker>
    <marker
       style="overflow:visible"
       id="Arrow1Mend-8"
       refX="0"
       refY="0"
       orient="auto"
       inkscape:stockid="Arrow1Mend">
      <path
         inkscape:connector-curvature="0"
         transform="matrix(-0.4,0,0,-0.4,-4,0)"
         style="fill-rule:evenodd;stroke:#000000;stroke-width:1pt"
         d="M 0,0 5,-5 -12.5,0 5,5 0,0 z"
         id="path10936-8" />
    </marker>
    <marker
       style="overflow:visible"
       id="Arrow1Mend-1"
       refX="0"
       refY="0"
       orient="auto"
       inkscape:stockid="Arrow1Mend">
      <path
         inkscape:connector-curvature="0"
         transform="matrix(-0.4,0,0,-0.4,-4,0)"
         style="fill-rule:evenodd;stroke:#000000;stroke-width:1pt"
         d="M 0,0 5,-5 -12.5,0 5,5 0,0 z"
         id="path10936-5" />
    </marker>
  </defs>
  <metadata
     id="metadata7">
    <rdf:RDF>
      <cc:Work
         rdf:about="">
        <dc:format>image/svg+xml</dc:format>
        <dc:type
           rdf:resource="http://purl.org/dc/dcmitype/StillImage" />
        <dc:title></dc:title>
      </cc:Work>
    </rdf:RDF>
  </metadata>
  <g
     inkscape:groupmode="layer"
     id="layer14"
     inkscape:label="Contour e"
     style="display:inline"
     transform="translate(-137.61697,436.55756)" />
  <g
     inkscape:groupmode="layer"
     id="layer2"
     inkscape:label="Contour"
     style="display:inline"
     transform="translate(-137.61697,436.55756)" />
  <g
     inkscape:groupmode="layer"
     id="layer9"
     inkscape:label="Venturi inspi"
     style="display:inline"
     transform="translate(-137.61697,436.55756)">
    <g
       id="g7599"
       transform="translate(94.196404,-164.04914)">
      <path
         style="fill:#ffffff;fill-opacity:1;stroke:#000000;stroke-width:1;stroke-linecap:round;stroke-linejoin:round;stroke-miterlimit:4;stroke-opacity:1;stroke-dasharray:none;stroke-dashoffset:0;display:inline;enable-background:new"
         d="M 654.9375,100.0625 642,121.125 c 4e-4,0.11455 -4e-4,0.2292 0,0.34375 l -209.875,0 c -2.22843,0.83459 -2.67243,2.11989 -3.09375,3.40625 l 0,-0.0937 -92.875,0.0937 -10.1875,10.15625 -58.96875,0 0,10.1875 -10.15625,0 0,-9.40625 -23.71875,0 0,12.15625 92.59375,0 12.53125,0 0,-0.5625 7.375,-7.34375 67.125,0 0,1.53125 16.59375,0 0,-8.90625 211.90625,0 6.34375,-14.46875 13.1875,0 0,14.46875 0,44.5625 64.34375,0 0,-6.0625 -1.9375,-1.125 -4.53125,0 0,2.8125 -4.4375,0 0,-3.25 -3.3125,0 0,-2.15625 0,-41.25 c -0.52531,-6.4151 -6.30355,-9.38867 -12.03125,-9.28125 -5.7277,0.10743 -11.40197,3.29585 -11.6875,9.28125 l 0,17.78125 c 0.0905,4.15942 -6.12157,5.22299 -8.53125,2.5 l -0.0625,-46.4375 -23.65625,0 z m 5.84375,81.625 0,44.5625 0,14.875 -13.1875,0 -6.625,-14.875 -13.40625,0 0,5.40625 0,78.375 3.9375,0 4.28125,-5.59375 0,-2.59375 -4.28125,0 0,-5.34375 4.28125,0 0,-58.625 6.21875,0 c -1.9e-4,0.11455 1.9e-4,0.2292 0,0.34375 l 12.9375,21.0625 23.65625,0 0.0625,-46.4375 c 2.40968,-2.72299 8.62177,-1.65942 8.53125,2.5 l 0,17.75 c 0.57107,11.9708 22.66814,12.8302 23.71875,0 l 0,-41.25 0,-2.125 3.3125,0 0,-3.90625 4.4375,0 0,3.09375 4.53125,0 1.9375,-1.125 0,-6.09375 -64.34375,0 z m -427.65625,30.25 0,11.59375 23.71875,0 0,-9.375 10.15625,0 0,10.15625 15.3125,0 0,3.3125 3.90625,0 0,4.4375 -3.09375,0 0,4.53125 1.125,1.9375 7.53125,0 1.53125,0 7.53125,0 1.125,-1.9375 0,-4.53125 -2.8125,0 0,-4.4375 3.25,0 0,-3.3125 23.5625,0 10.1875,10.1875 13,0 0,58.65625 4.28125,0 0,5.34375 -4.28125,0 0,2.59375 4.28125,5.59375 3.96875,0 0,-0.0312 0,-79.3125 0,-8.03125 -11.78125,0 -7.375,-7.375 -12.53125,0 -92.59375,0 z m 179.625,5.875 0,1.5 -7.84375,0 0,8.03125 0,79.3125 0,0.0312 3.9375,0 4.28125,-5.59375 0,-2.59375 -4.28125,0 0,-5.34375 4.28125,0 0,-58.59375 15.90625,0 0,-0.0625 c 0.42132,1.28637 0.86532,2.54042 3.09375,3.375 l 139.6875,0 0,58.625 4.28125,0 0,5.34375 -4.28125,0 0,2.59375 4.28125,5.59375 3.96875,0 0,-78.375 0,-5.40625 -150.71875,0 0,-8.4375 -16.59375,0 z"
         transform="translate(-94.196404,-336.42242)"
         id="path7557"
         inkscape:connector-curvature="0" />
      <g
         style="display:inline;enable-background:new"
         transform="matrix(-0.51749383,0,0,0.51749383,716.61732,-293.75584)"
         inkscape:label="#g4282"
         id="g7382">
        <g
           id="g7390"
           transform="translate(116.40734,-38.79741)">
          <g
             id="g7392" />
        </g>
        <path
           sodipodi:nodetypes="cccccccccccccccccccccccccc"
           inkscape:connector-curvature="0"
           id="path7416"
           d="m 436.60406,178.67478 0,28.8155 c 9.53228,22.07317 21.92962,29.82104 34.86729,34.86729 L 911.18655,226.861 898.91852,215.23857 c -4.52171,10.78148 -18.26899,10.56918 -18.07936,-5.81122 l -92.97948,-1.93707 -10.33102,-10.97674 -258.7731,0.73747 -0.22156,-18.57623 z m -66.50611,55.9345 -20.6621,0 -0.64569,16.78796 -11.62242,0 -1.29139,-16.78796 -14.20518,-0.32285 -1e-5,14.52805 -7.74828,0 0,-9.03967 -5.16553,0 0,17.43364 111.05876,-0.64569 -21.15112,-21.95348 -9.64582,0 z"
           style="fill:none;stroke:none;display:inline" />
        <g
           transform="translate(1.5510399,-2.1121583)"
           id="g7508">
          <g
             id="g7500">
            <path
               style="fill:none;stroke:#000000;stroke-width:1.93239021;stroke-linecap:butt;stroke-linejoin:miter;stroke-miterlimit:4;stroke-opacity:1;stroke-dasharray:none;display:inline;enable-background:new"
               d="m 343.3854,217.47219 0,28.8155 c 9.53228,22.07317 21.92962,29.82104 34.86729,34.86729 l 439.7152,-15.49657 -12.26803,-11.62243 c -4.52171,10.78148 -18.26899,10.56918 -18.07936,-5.81122 l -92.97948,-1.93707 -10.33102,-10.97674 -258.7731,0.73747 -0.22156,-18.57623 z m -66.50611,55.9345 -20.6621,0 -0.64569,16.78796 -11.62242,0 -1.29139,-16.78796 -14.20518,-0.32285 -1e-5,14.52805 -7.74828,0 0,-9.03967 -5.16553,0 0,17.43364 111.05876,-0.64569 -21.15112,-21.95348 -9.64582,0 z"
               id="path7394"
               inkscape:connector-curvature="0"
               sodipodi:nodetypes="cccccccccccccccccccccccccc"
               transform="translate(116.40734,-38.797409)" />
            <path
               sodipodi:open="true"
               sodipodi:end="11.489267"
               sodipodi:start="5.2176405"
               d="m 786.12657,306.30019 c 2.41598,1.33638 3.29117,4.37827 1.9548,6.79425 -1.33638,2.41598 -4.37827,3.29117 -6.79425,1.95479 -2.41598,-1.33638 -3.29117,-4.37826 -1.95479,-6.79424 1.32547,-2.39626 4.3321,-3.28015 6.74352,-1.98247"
               sodipodi:ry="4.9991479"
               sodipodi:rx="4.9991479"
               sodipodi:cy="310.67471"
               sodipodi:cx="783.70685"
               id="path7420"
               style="fill:#000000;fill-opacity:1;stroke:none;display:inline"
               sodipodi:type="arc"
               transform="matrix(1.2856618,0,0,-1.2856618,-94.84245,613.95918)" />
            <path
               style="fill:none;stroke:#999999;stroke-width:1.93239021;stroke-linecap:butt;stroke-linejoin:miter;stroke-miterlimit:4;stroke-opacity:1;stroke-dasharray:none;stroke-dashoffset:0;display:inline"
               d="m 459.79274,207.49028 -47.90774,0 0.32285,27.119 -18.92122,0 -0.32284,-42.81813 18.92121,-13.11637 47.90774,0 0,0"
               id="path7422"
               inkscape:connector-curvature="0"
               sodipodi:nodetypes="cccccccc" />
            <path
               sodipodi:nodetypes="cccccccccccccccccccccccc"
               inkscape:connector-curvature="0"
               id="path7426"
               d="m 302.97355,168.08945 0,-10.33105 c 2.7824,-1.9271 3.32287,-3.9215 3.16803,-6.28569 -0.13274,-2.50038 -2.61579,-5.39351 -5.39046,-5.47997 -4.20364,0.10034 -6.8322,4.47284 -6.24538,7.84116 0.59154,1.80551 1.11626,2.70055 3.30228,4.57019 l 0.64569,14.85088 c 19.37212,6.36798 23.55519,22.75384 22.09558,32.60737 l 0.0375,6.36235 -3.26593,0.0946 0.0807,14.97195 3.43022,0 -0.28249,29.90354 10.33106,0 0.6457,-17.75649 4.51983,0.32285 0.32285,5.81121 -0.32285,3.5513 8.07113,-0.6457 0.32284,-13.5595 -1.61422,-11.29958 c -2.766,-5.07825 -6.40568,-6.66179 -10.0082,-8.39397 -0.005,-21.41822 -17.47014,-41.79001 -29.84387,-47.13541 z"
               style="fill:#000000;fill-opacity:1;stroke:#000000;stroke-width:1.93239033px;stroke-linecap:butt;stroke-linejoin:miter;stroke-opacity:1;display:inline" />
          </g>
          <use
             x="0"
             y="0"
             xlink:href="#g7500"
             id="use7506"
             transform="matrix(1,0,0,-1,0,532.87682)"
             width="790.65302"
             height="264.52844" />
        </g>
      </g>
    </g>
    <path
       style="fill:none;stroke:#666666;stroke-width:4;stroke-linecap:butt;stroke-linejoin:miter;stroke-miterlimit:4;stroke-opacity:1;stroke-dasharray:none;marker-end:url(#Arrow1Mend-1)"
       d="m 197.86172,503.4699 c 182.9669,1.77606 185.81029,1.82725 189.0461,133.21383"
       id="path7658"
       inkscape:connector-curvature="0"
       transform="translate(0,-500.47156)"
       sodipodi:nodetypes="cc" />
    <path
       sodipodi:nodetypes="cc"
       inkscape:connector-curvature="0"
       id="path7846"
       d="m 607.41128,-177.2469 c 1.14854,-144.94707 -14.50053,-140.96638 -145.88711,-144.20219"
       style="fill:none;stroke:#666666;stroke-width:4;stroke-linecap:butt;stroke-linejoin:miter;stroke-miterlimit:4;stroke-opacity:1;stroke-dasharray:none;marker-end:url(#Arrow1Mend-1)" />
    <path
       style="fill:none;stroke:#000000;stroke-width:1px;stroke-linecap:butt;stroke-linejoin:miter;stroke-opacity:1;marker-end:url(#Arrow1Mend-1)"
       d="m 771.09745,-320.88097 -36.05451,0"
       id="path7848"
       inkscape:connector-curvature="0" />
    <path
       inkscape:connector-curvature="0"
       id="path8864"
       d="m 656.52921,-320.88097 -49.49894,0"
       style="fill:none;stroke:#000000;stroke-width:1px;stroke-linecap:butt;stroke-linejoin:miter;stroke-opacity:1;marker-end:url(#Arrow1Mend-1)" />
    <text
       xml:space="preserve"
       style="font-size:22px;font-style:normal;font-variant:normal;font-weight:normal;font-stretch:normal;text-align:center;line-height:125%;letter-spacing:0px;word-spacing:0px;text-anchor:middle;fill:#000000;fill-opacity:1;stroke:none;font-family:Arial;-inkscape-font-specification:Sans"
       x="494.88037"
       y="-420.80951"
       id="text8866"
       sodipodi:linespacing="125%"><tspan
         sodipodi:role="line"
         id="tspan8868"
         x="494.88037"
         y="-420.80951">Inspiration</tspan></text>
    <text
       xml:space="preserve"
       style="font-size:22px;font-style:normal;font-variant:normal;font-weight:normal;font-stretch:normal;text-align:center;line-height:125%;letter-spacing:0px;word-spacing:0px;text-anchor:middle;fill:#000000;fill-opacity:1;stroke:none;font-family:Arial;-inkscape-font-specification:Sans"
       x="494.95117"
       y="-103.61722"
       id="text8870"
       sodipodi:linespacing="125%"><tspan
         sodipodi:role="line"
         x="494.95117"
         y="-103.61722"
         id="tspan8874">Expiration</tspan></text>
    <text
       xml:space="preserve"
       style="font-size:16px;font-style:normal;font-variant:normal;font-weight:normal;font-stretch:normal;text-align:center;line-height:125%;letter-spacing:0px;word-spacing:0px;text-anchor:middle;fill:#000000;fill-opacity:1;stroke:none;font-family:Arial;-inkscape-font-specification:Sans"
       x="161.30447"
       y="-315.45944"
       id="text8878"
       sodipodi:linespacing="125%"><tspan
         sodipodi:role="line"
         id="tspan8880"
         x="161.30447"
         y="-315.45944">Patient</tspan></text>
    <path
       style="fill:none;stroke:#666666;stroke-width:4;stroke-linecap:butt;stroke-linejoin:miter;stroke-miterlimit:4;stroke-opacity:1;stroke-dasharray:none;marker-end:url(#Arrow1Mend-1)"
       d="m 362.00789,-319.6602 -126.58572,0"
       id="path8882"
       inkscape:connector-curvature="0"
       sodipodi:nodetypes="cc" />
    <text
       xml:space="preserve"
       style="font-size:16px;font-style:normal;font-variant:normal;font-weight:normal;font-stretch:normal;text-align:center;line-height:125%;letter-spacing:0px;word-spacing:0px;text-anchor:middle;fill:#000000;fill-opacity:1;stroke:none;font-family:Arial;-inkscape-font-specification:Sans"
       x="612.21674"
       y="-154.66457"
       id="text8884"
       sodipodi:linespacing="125%"><tspan
         sodipodi:role="line"
         id="tspan8886"
         x="612.21674"
         y="-154.66457">Appel d'air</tspan></text>
    <text
       xml:space="preserve"
       style="font-size:16px;font-style:normal;font-variant:normal;font-weight:normal;font-stretch:normal;text-align:start;line-height:125%;letter-spacing:0px;word-spacing:0px;text-anchor:start;fill:#000000;fill-opacity:1;stroke:none;font-family:Arial;-inkscape-font-specification:Sans"
       x="776.3996"
       y="-326.24121"
       id="text8888"
       sodipodi:linespacing="125%"><tspan
         sodipodi:role="line"
         id="tspan8890"
         x="776.3996"
         y="-326.24121">Débit en provenance</tspan><tspan
         sodipodi:role="line"
         x="776.3996"
         y="-306.24121"
         id="tspan8892">du module de contrôle</tspan></text>
  </g>
  <g
     inkscape:groupmode="layer"
     id="layer11"
     inkscape:label="Venturi expi"
     style="display:inline"
     transform="translate(-137.61697,436.55756)">
    <g
       id="g7618"
       transform="translate(94.196404,-108.21687)">
      <g
         id="layer13"
         inkscape:label="Boitier 2"
         style="display:inline;enable-background:new"
         transform="translate(6.7925474,25.075377)">
        <path
           style="fill:#ffffff;fill-opacity:1;stroke:#000000;stroke-width:1;stroke-linecap:round;stroke-linejoin:round;stroke-miterlimit:4;stroke-opacity:1;stroke-dasharray:none;stroke-dashoffset:0"
           d="M 654.9375,420.34375 642,441.40625 c 4e-4,0.11455 -4e-4,0.2292 0,0.34375 l -209.875,0 c -2.22843,0.83459 -2.67243,2.11989 -3.09375,3.40625 l 0,-0.0937 -92.875,0.0937 -10.1875,10.15625 -58.96875,0 0,10.1875 -10.15625,0 0,-9.40625 -23.71875,0 0,12.15625 92.59375,0 12.53125,0 0,-0.5625 7.375,-7.34375 67.125,0 0,1.53125 16.59375,0 0,-8.90625 211.90625,0 6.34375,-14.46875 13.1875,0 0,14.46875 0,44.59375 64.34375,0 0,-6.09375 -1.9375,-1.125 -4.53125,0 0,2.8125 -4.4375,0 0,-3.25 -3.3125,0 0,-2.15625 0,-41.25 c -0.52531,-6.4151 -6.30355,-9.38867 -12.03125,-9.28125 -5.7277,0.10743 -11.40197,3.29585 -11.6875,9.28125 l 0,17.78125 c 0.0905,4.15942 -6.12157,5.22299 -8.53125,2.5 l -0.0625,-46.4375 -23.65625,0 z m 5.84375,81.625 0,44.5625 0,14.875 -13.1875,0 -6.625,-14.875 -13.40625,0 0,5.40625 0,78.375 3.9375,0 4.28125,-5.59375 0,-2.59375 -4.28125,0 0,-5.34375 4.28125,0 0,-58.625 6.21875,0 c -1.9e-4,0.11455 1.9e-4,0.2292 0,0.34375 l 12.9375,21.0625 23.65625,0 0.0625,-46.4375 c 2.40968,-2.72299 8.62177,-1.65942 8.53125,2.5 l 0,17.75 c 0.57107,11.9708 22.66814,12.8302 23.71875,0 l 0,-41.25 0,-2.125 3.3125,0 0,-3.90625 4.4375,0 0,3.09375 4.53125,0 1.9375,-1.125 0,-6.09375 -64.34375,0 z m -427.65625,30.25 0,11.59375 23.71875,0 0,-9.375 10.15625,0 0,10.15625 15.3125,0 0,3.3125 3.90625,0 0,4.4375 -3.09375,0 0,4.53125 1.125,1.9375 7.53125,0 1.53125,0 7.53125,0 1.125,-1.9375 0,-4.53125 -2.8125,0 0,-4.4375 3.25,0 0,-3.3125 23.5625,0 10.1875,10.1875 13,0 0,58.65625 4.28125,0 0,5.34375 -4.28125,0 0,2.59375 4.28125,5.59375 3.96875,0 0,-0.0312 0,-79.3125 0,-8.03125 -11.78125,0 -7.375,-7.375 -12.53125,0 -92.59375,0 z m 179.625,5.875 0,1.5 -7.84375,0 0,8.03125 0,79.3125 0,0.0312 3.9375,0 4.28125,-5.59375 0,-2.59375 -4.28125,0 0,-5.34375 4.28125,0 0,-58.59375 15.90625,0 0,-0.0625 c 0.42132,1.28637 0.86532,2.54042 3.09375,3.375 l 139.6875,0 0,58.625 4.28125,0 0,5.34375 -4.28125,0 0,2.59375 4.28125,5.59375 3.96875,0 0,-78.375 0,-5.40625 -150.71875,0 0,-8.4375 -16.59375,0 z"
           transform="translate(-100.98895,-417.33007)"
           id="rect13935"
           inkscape:connector-curvature="0" />
        <g
           id="g14540"
           transform="matrix(0.67948561,0,0,1,61.337625,0)" />
        <g
           transform="matrix(0,-0.67948561,1,0,482.6875,212.6442)"
           id="use14545" />
        <g
           transform="translate(222.66006,27.34183)"
           id="use14554" />
      </g>
      <g
         id="g7518"
         inkscape:label="#g4282"
         transform="matrix(-0.51749383,0,0,0.51749383,716.61732,-29.287202)"
         style="display:inline;enable-background:new">
        <g
           transform="translate(116.40734,-38.79741)"
           id="g7520">
          <g
             id="g7522" />
        </g>
        <path
           style="fill:none;stroke:none;display:inline"
           d="m 436.60406,178.67478 0,28.8155 c 9.53228,22.07317 21.92962,29.82104 34.86729,34.86729 L 911.18655,226.861 898.91852,215.23857 c -4.52171,10.78148 -18.26899,10.56918 -18.07936,-5.81122 l -92.97948,-1.93707 -10.33102,-10.97674 -258.7731,0.73747 -0.22156,-18.57623 z m -66.50611,55.9345 -20.6621,0 -0.64569,16.78796 -11.62242,0 -1.29139,-16.78796 -14.20518,-0.32285 -1e-5,14.52805 -7.74828,0 0,-9.03967 -5.16553,0 0,17.43364 111.05876,-0.64569 -21.15112,-21.95348 -9.64582,0 z"
           id="path7524"
           inkscape:connector-curvature="0"
           sodipodi:nodetypes="cccccccccccccccccccccccccc" />
        <g
           id="g7526"
           transform="translate(1.5510399,-2.1628183)">
          <g
             id="g7528">
            <path
               sodipodi:nodetypes="cccccccccccccccccccccccccc"
               inkscape:connector-curvature="0"
               id="path7530"
               d="m 431.78646,178.67478 0,28.8155 c 9.53228,22.07317 21.92962,29.82104 34.86729,34.86729 L 906.36895,226.861 894.10092,215.23857 c -4.52171,10.78148 -18.26899,10.56918 -18.07936,-5.81122 l -92.97948,-1.93707 -10.33102,-10.97674 -258.7731,0.73747 -0.22156,-18.57623 z m -66.50611,55.9345 -20.6621,0 -0.64569,16.78796 -11.62242,0 -1.29139,-16.78796 -14.20518,-0.32285 -10e-6,14.52805 -7.74828,0 0,-9.03967 -5.16553,0 0,17.43364 111.05876,-0.64569 -21.15112,-21.95348 -9.64582,0 z"
               style="fill:none;stroke:#000000;stroke-width:1.93239021;stroke-linecap:butt;stroke-linejoin:miter;stroke-miterlimit:4;stroke-opacity:1;stroke-dasharray:none;display:inline;enable-background:new" />
            <path
               transform="matrix(1.2856618,0,0,-1.2856618,-122.84873,613.95918)"
               sodipodi:type="arc"
               style="fill:#000000;fill-opacity:1;stroke:none;display:inline"
               id="path7532"
               sodipodi:cx="783.70685"
               sodipodi:cy="310.67471"
               sodipodi:rx="4.9991479"
               sodipodi:ry="4.9991479"
               d="m 786.12657,306.30019 c 2.41598,1.33638 3.29117,4.37827 1.9548,6.79425 -1.33638,2.41598 -4.37827,3.29117 -6.79425,1.95479 -2.41598,-1.33638 -3.29117,-4.37826 -1.95479,-6.79424 1.32547,-2.39626 4.3321,-3.28015 6.74352,-1.98247"
               sodipodi:start="5.2176405"
               sodipodi:end="11.489267"
               sodipodi:open="true" />
            <path
               sodipodi:nodetypes="cccccccc"
               inkscape:connector-curvature="0"
               id="path7534"
               d="m 431.78646,207.49028 -47.90774,0 0.32285,27.119 -18.92122,0 -0.32284,-42.81813 18.92121,-13.11637 47.90774,0 0,0"
               style="fill:none;stroke:#999999;stroke-width:1.93239021;stroke-linecap:butt;stroke-linejoin:miter;stroke-miterlimit:4;stroke-opacity:1;stroke-dasharray:none;stroke-dashoffset:0;display:inline" />
            <path
               style="fill:#000000;fill-opacity:1;stroke:#000000;stroke-width:1.93239033px;stroke-linecap:butt;stroke-linejoin:miter;stroke-opacity:1;display:inline"
               d="m 302.97355,168.08945 0,-10.33105 c 2.7824,-1.9271 3.32287,-3.9215 3.16803,-6.28569 -0.13274,-2.50038 -2.61579,-5.39351 -5.39046,-5.47997 -4.20364,0.10034 -6.8322,4.47284 -6.24538,7.84116 0.59154,1.80551 1.11626,2.70055 3.30228,4.57019 l 0.64569,14.85088 c 18.89892,19.6176 -0.10483,30.32505 -6.29645,32.60737 l 0.0375,6.36235 -3.26593,0.0946 0.0807,14.97195 3.43022,0 -0.28249,29.90354 10.33106,0 0.6457,-17.75649 4.51983,0.32285 0.32285,5.81121 -0.32285,3.5513 8.07113,-0.6457 0.32284,-13.5595 -1.61422,-11.29958 c -2.766,-5.07825 -6.40568,-6.66179 -10.0082,-8.39397 8.51261,-10.53461 10.92189,-36.1116 -1.45184,-47.13541 z"
               id="path7536"
               inkscape:connector-curvature="0"
               sodipodi:nodetypes="cccccccccccccccccccccccc" />
          </g>
          <use
             height="264.52844"
             width="790.65302"
             transform="matrix(1,0,0,-1,0,532.97814)"
             id="use7553"
             xlink:href="#g7528"
             y="0"
             x="0" />
        </g>
      </g>
    </g>
  </g>
</svg>
