<?xml version="1.0" encoding="UTF-8" standalone="no"?>
<!-- Inkscape 0.48.4 r9939 (Dec 17 2012)#Logo CHUM - Ancien - Noir.emf -->

<svg
   xmlns:dc="http://purl.org/dc/elements/1.1/"
   xmlns:cc="http://creativecommons.org/ns#"
   xmlns:rdf="http://www.w3.org/1999/02/22-rdf-syntax-ns#"
   xmlns:svg="http://www.w3.org/2000/svg"
   xmlns="http://www.w3.org/2000/svg"
   xmlns:sodipodi="http://sodipodi.sourceforge.net/DTD/sodipodi-0.dtd"
   xmlns:inkscape="http://www.inkscape.org/namespaces/inkscape"
   version="1.0"
   width="61.590549"
   height="53.697155"
   id="svg2985"
   inkscape:version="0.48.4 r9939"
   sodipodi:docname="Logo CHUM - Ancien - Noir.emf">
  <metadata
     id="metadata3007">
    <rdf:RDF>
      <cc:Work
         rdf:about="">
        <dc:format>image/svg+xml</dc:format>
        <dc:type
           rdf:resource="http://purl.org/dc/dcmitype/StillImage" />
        <dc:title></dc:title>
      </cc:Work>
    </rdf:RDF>
  </metadata>
  <sodipodi:namedview
     pagecolor="#ffffff"
     bordercolor="#666666"
     borderopacity="1"
     objecttolerance="10"
     gridtolerance="10"
     guidetolerance="10"
     inkscape:pageopacity="0"
     inkscape:pageshadow="2"
     inkscape:window-width="1680"
     inkscape:window-height="1003"
     id="namedview3005"
     showgrid="false"
     fit-margin-top="5"
     fit-margin-left="5"
     fit-margin-bottom="5"
     fit-margin-right="5"
     inkscape:zoom="3.228524"
     inkscape:cx="43.763783"
     inkscape:cy="17.179439"
     inkscape:window-x="-4"
     inkscape:window-y="-4"
     inkscape:window-maximized="1"
     inkscape:current-layer="svg2985" />
  <defs
     id="defs2987" />
  <g
     id="g2989"
     transform="translate(0.0039371,-0.0314956)">
    <path
       style="fill:#000000;fill-opacity:1;fill-rule:nonzero;stroke:none"
       d="m 20.409449,7.7598419 5.456692,0 0,16.3346441 -5.456692,0 0,-16.3346441 z"
       id="path2991"
       inkscape:connector-curvature="0" />
    <path
       style="fill:#000000;fill-opacity:1;fill-rule:nonzero;stroke:none"
       d="m 20.409449,26.822832 21.791338,0 0,2.728347 -21.791338,0 0,-2.728347 z"
       id="path2993"
       inkscape:connector-curvature="0" />
    <path
       style="fill:#000000;fill-opacity:1;fill-rule:nonzero;stroke:none"
       d="m 36.744094,7.7598419 5.456693,0 0,16.3346441 -5.456693,0 0,-16.3346441 z"
       id="path2995"
       inkscape:connector-curvature="0" />
    <path
       style="fill:#000000;fill-opacity:1;fill-rule:nonzero;stroke:none"
       d="m 28.594488,5.0314956 5.456693,0 0,16.3346444 -5.456693,0 0,-16.3346444 z"
       id="path2997"
       inkscape:connector-curvature="0" />
    <path
       style="fill:#000000;fill-opacity:1;fill-rule:nonzero;stroke:none"
       d="m 50.066928,44.716532 -3.11811,-4.393701 0,8.291338 -3.366141,0 0,-12.259841 2.834645,0 c 0.602362,0 1.169292,0.35433 1.523622,0.885826 l 2.125984,3.22441 2.161418,-3.22441 c 0.35433,-0.531496 0.92126,-0.885826 1.523622,-0.885826 l 2.834645,0 0,12.259841 -3.366141,0 0,-8.291338 -3.153544,4.393701 z M 15.448819,38.69291 c -0.354331,-0.106299 -0.814961,-0.177165 -1.169292,-0.212598 -3.047244,-0.283465 -5.1732279,0.992126 -5.1732279,3.968503 0,3.047244 2.1259839,4.251969 5.1732279,3.968504 0.318898,-0.03543 0.779528,-0.141732 1.169292,-0.212598 l 0,2.232283 c -0.637796,0.106299 -1.417323,0.212598 -2.090551,0.248031 -4.9606303,0.425197 -8.326772,-2.303149 -8.3622051,-6.23622 0.035433,-3.93307 3.4015748,-6.696849 8.3622051,-6.23622 0.673228,0.03543 1.452755,0.141733 2.090551,0.248032 l 0,2.232283 z m 9.425196,5.137795 -4.464566,0 0,4.783464 -3.68504,0 0,-12.259841 1.807087,0 c 1.027559,0.03543 1.842519,0.921259 1.877953,2.055118 l 0,2.728346 4.464566,0 0,-4.783464 3.720473,0 0,12.259841 -3.720473,0 0,-4.783464 z m 8.751969,-0.07087 c 0,1.488189 0.496063,2.763779 2.480315,2.763779 1.948819,0 2.409449,-1.27559 2.409449,-2.763779 l 0,-7.405511 3.685039,0 0,7.937007 c 0,3.047244 -2.338583,4.429133 -6.094488,4.429133 -3.791339,0 -6.165355,-0.637795 -6.165355,-4.429133 l 0,-7.937007 1.807087,0 c 1.027559,0.03543 1.877953,0.921259 1.877953,2.055118 l 0,5.350393 z"
       id="path2999"
       inkscape:connector-curvature="0" />
  </g>
</svg>
