<?xml version="1.0" encoding="UTF-8" standalone="no"?>
<!-- Created with Inkscape (http://www.inkscape.org/) -->

<svg
   xmlns:dc="http://purl.org/dc/elements/1.1/"
   xmlns:cc="http://creativecommons.org/ns#"
   xmlns:rdf="http://www.w3.org/1999/02/22-rdf-syntax-ns#"
   xmlns:svg="http://www.w3.org/2000/svg"
   xmlns="http://www.w3.org/2000/svg"
   xmlns:sodipodi="http://sodipodi.sourceforge.net/DTD/sodipodi-0.dtd"
   xmlns:inkscape="http://www.inkscape.org/namespaces/inkscape"
   sodipodi:docname="contour phasitron.svg"
   inkscape:version="0.48.4 r9939"
   version="1.1"
   id="svg2"
   height="264.52844"
   width="790.65302"
   style="enable-background:new">
  <sodipodi:namedview
     id="base"
     pagecolor="#ffffff"
     bordercolor="#666666"
     borderopacity="1.0"
     inkscape:pageopacity="0.0"
     inkscape:pageshadow="2"
     inkscape:zoom="2.04183"
     inkscape:cx="363.38904"
     inkscape:cy="94.690135"
     inkscape:document-units="px"
     inkscape:current-layer="layer13"
     showgrid="false"
     showguides="false"
     inkscape:guide-bbox="true"
     inkscape:snap-global="false"
     inkscape:window-width="1680"
     inkscape:window-height="1001"
     inkscape:window-x="-4"
     inkscape:window-y="-4"
     inkscape:window-maximized="1"
     inkscape:snap-grids="false"
     inkscape:snap-bbox="true"
     inkscape:snap-smooth-nodes="true"
     inkscape:bbox-nodes="true"
     inkscape:bbox-paths="true"
     inkscape:snap-bbox-edge-midpoints="true"
     inkscape:snap-bbox-midpoints="true"
     inkscape:object-paths="true"
     inkscape:snap-intersection-paths="true"
     inkscape:object-nodes="true"
     inkscape:snap-midpoints="true"
     inkscape:snap-object-midpoints="true"
     inkscape:snap-center="true"
     inkscape:snap-nodes="true"
     fit-margin-top="0"
     fit-margin-left="0"
     fit-margin-right="0"
     fit-margin-bottom="0">
    <inkscape:grid
       snapvisiblegridlinesonly="true"
       enabled="true"
       visible="true"
       empspacing="5"
       units="cm"
       id="grid2997"
       type="xygrid"
       originx="-194.10945px"
       originy="-678.60268px" />
    <sodipodi:guide
       orientation="0,1"
       position="-144.85997,-147.1636"
       id="guide10374" />
    <sodipodi:guide
       orientation="0,1"
       position="-144.85997,-58.92109"
       id="guide10376" />
  </sodipodi:namedview>
  <defs
     id="defs4">
    <marker
       inkscape:stockid="Arrow1Mend"
       orient="auto"
       refY="0"
       refX="0"
       id="Arrow1Mend"
       style="overflow:visible">
      <path
         id="path10936"
         d="M 0,0 5,-5 -12.5,0 5,5 0,0 z"
         style="fill-rule:evenodd;stroke:#000000;stroke-width:1pt"
         transform="matrix(-0.4,0,0,-0.4,-4,0)"
         inkscape:connector-curvature="0" />
    </marker>
    <marker
       style="overflow:visible"
       id="Arrow1Mend-8"
       refX="0"
       refY="0"
       orient="auto"
       inkscape:stockid="Arrow1Mend">
      <path
         inkscape:connector-curvature="0"
         transform="matrix(-0.4,0,0,-0.4,-4,0)"
         style="fill-rule:evenodd;stroke:#000000;stroke-width:1pt"
         d="M 0,0 5,-5 -12.5,0 5,5 0,0 z"
         id="path10936-8" />
    </marker>
    <marker
       style="overflow:visible"
       id="Arrow1Mend-1"
       refX="0"
       refY="0"
       orient="auto"
       inkscape:stockid="Arrow1Mend">
      <path
         inkscape:connector-curvature="0"
         transform="matrix(-0.4,0,0,-0.4,-4,0)"
         style="fill-rule:evenodd;stroke:#000000;stroke-width:1pt"
         d="M 0,0 5,-5 -12.5,0 5,5 0,0 z"
         id="path10936-5" />
    </marker>
  </defs>
  <metadata
     id="metadata7">
    <rdf:RDF>
      <cc:Work
         rdf:about="">
        <dc:format>image/svg+xml</dc:format>
        <dc:type
           rdf:resource="http://purl.org/dc/dcmitype/StillImage" />
        <dc:title></dc:title>
      </cc:Work>
    </rdf:RDF>
  </metadata>
  <g
     inkscape:groupmode="layer"
     id="layer2"
     inkscape:label="Boitier extérieur"
     style="display:inline">
    <g
       style="enable-background:new"
       id="g3323"
       transform="translate(6.7925474,24.30975)">
      <g
         style="display:inline"
         inkscape:label="Boitier 2"
         id="layer13">
        <path
           style="fill:#ffffff;fill-opacity:1;stroke:#000000;stroke-width:1;stroke-linecap:round;stroke-linejoin:round;stroke-miterlimit:4;stroke-opacity:1;stroke-dasharray:none;stroke-dashoffset:0"
           d="M 560.75 27.3125 L 547.8125 48.375 C 547.8129 48.489552 547.8121 48.604198 547.8125 48.71875 L 337.9375 48.71875 C 335.70907 49.553335 335.26507 50.838637 334.84375 52.125 L 334.84375 52.03125 L 241.96875 52.125 L 231.78125 62.28125 L 172.8125 62.28125 L 172.8125 72.46875 L 162.65625 72.46875 L 162.65625 63.0625 L 138.9375 63.0625 L 138.9375 107.21875 L 138.9375 150.78125 L 162.65625 150.78125 L 162.65625 141.40625 L 172.8125 141.40625 L 172.8125 151.5625 L 188.125 151.5625 L 188.125 154.875 L 192.03125 154.875 L 192.03125 159.3125 L 188.9375 159.3125 L 188.9375 163.84375 L 190.0625 165.78125 L 197.59375 165.78125 L 199.125 165.78125 L 206.65625 165.78125 L 207.78125 163.84375 L 207.78125 159.3125 L 204.96875 159.3125 L 204.96875 154.875 L 208.21875 154.875 L 208.21875 151.5625 L 231.78125 151.5625 L 241.96875 161.75 L 254.96875 161.75 L 254.96875 220.40625 L 259.25 220.40625 L 259.25 225.75 L 254.96875 225.75 L 254.96875 228.34375 L 259.25 233.9375 L 282.15625 233.9375 L 291.78125 233.9375 L 314.65625 233.9375 L 318.9375 228.34375 L 318.9375 225.75 L 314.65625 225.75 L 314.65625 220.40625 L 318.9375 220.40625 L 318.9375 161.8125 L 334.84375 161.8125 L 334.84375 161.75 C 335.26507 163.03637 335.70907 164.29042 337.9375 165.125 L 477.625 165.125 L 477.625 223.75 L 481.90625 223.75 L 481.90625 229.09375 L 477.625 229.09375 L 477.625 231.6875 L 481.90625 237.28125 L 504.8125 237.28125 L 514.4375 237.28125 L 537.3125 237.28125 L 541.59375 231.6875 L 541.59375 229.09375 L 537.3125 229.09375 L 537.3125 223.75 L 541.59375 223.75 L 541.59375 165.125 L 547.8125 165.125 C 547.81231 165.23955 547.81269 165.3542 547.8125 165.46875 L 560.75 186.53125 L 584.40625 186.53125 L 584.46875 140.09375 C 586.87843 137.37076 593.09052 138.43433 593 142.59375 L 593 160.34375 C 593.57107 172.31455 615.66814 173.17395 616.71875 160.34375 L 616.71875 119.09375 L 616.71875 116.96875 L 620.03125 116.96875 L 620.03125 113.0625 L 624.46875 113.0625 L 624.46875 116.15625 L 629 116.15625 L 630.9375 115.03125 L 630.9375 107.5 L 630.9375 105.96875 L 630.9375 98.4375 L 629 97.3125 L 624.46875 97.3125 L 624.46875 100.125 L 620.03125 100.125 L 620.03125 96.875 L 616.71875 96.875 L 616.71875 94.71875 L 616.71875 53.46875 C 616.19344 47.05365 610.4152 44.08008 604.6875 44.1875 C 598.9598 44.29493 593.28553 47.48335 593 53.46875 L 593 71.25 C 593.0905 75.409423 586.87843 76.472991 584.46875 73.75 L 584.40625 27.3125 L 560.75 27.3125 z "
           transform="translate(-6.7925474,-24.30975)"
           id="rect13935" />
        <g
           transform="matrix(0.67948561,0,0,1,61.337625,0)"
           id="g14540" />
        <g
           id="use14545"
           transform="matrix(0,-0.67948561,1,0,482.6875,212.6442)" />
        <g
           id="use14554"
           transform="translate(222.66006,27.34183)" />
      </g>
    </g>
  </g>
</svg>
